<?xml version="1.0" encoding="UTF-8" standalone="no"?>
<svg
   xmlns:dc="http://purl.org/dc/elements/1.1/"
   xmlns:cc="http://creativecommons.org/ns#"
   xmlns:rdf="http://www.w3.org/1999/02/22-rdf-syntax-ns#"
   xmlns:svg="http://www.w3.org/2000/svg"
   xmlns="http://www.w3.org/2000/svg"
   xmlns:sodipodi="http://sodipodi.sourceforge.net/DTD/sodipodi-0.dtd"
   xmlns:inkscape="http://www.inkscape.org/namespaces/inkscape"
   version="1.0"
   width="400"
   height="300"
   id="svg168"
   sodipodi:docname="apis.svg"
   inkscape:version="0.92.2 (5c3e80d, 2017-08-06)">
  <metadata
     id="metadata172">
    <rdf:RDF>
      <cc:Work
         rdf:about="">
        <dc:format>image/svg+xml</dc:format>
        <dc:type
           rdf:resource="http://purl.org/dc/dcmitype/StillImage" />
        <dc:title></dc:title>
      </cc:Work>
    </rdf:RDF>
  </metadata>
  <sodipodi:namedview
     pagecolor="#ffffff"
     bordercolor="#666666"
     borderopacity="1"
     objecttolerance="10"
     gridtolerance="10"
     guidetolerance="10"
     inkscape:pageopacity="0"
     inkscape:pageshadow="2"
     inkscape:window-width="1920"
     inkscape:window-height="1005"
     id="namedview170"
     showgrid="false"
     units="px"
     inkscape:zoom="0.92875315"
     inkscape:cx="109.34807"
     inkscape:cy="226.42002"
     inkscape:window-x="-9"
     inkscape:window-y="-9"
     inkscape:window-maximized="1"
     inkscape:current-layer="svg168" />
  <defs
     id="defs6">
    <clipPath
       clipPathUnits="userSpaceOnUse"
       id="clipEmfPath1">
      <path
         d="M 1.9162146,2.8743219 H 1039.3867 V 721.45479 H 1.9162146 Z"
         id="path2"
         inkscape:connector-curvature="0" />
    </clipPath>
    <pattern
       id="EMFhbasepattern"
       patternUnits="userSpaceOnUse"
       width="6"
       height="6"
       x="0"
       y="0" />
  </defs>
  <path
     style="fill:none;stroke:#f7941e;stroke-width:1.31739748px;stroke-linecap:butt;stroke-linejoin:miter;stroke-miterlimit:8;stroke-dasharray:none;stroke-opacity:1"
     d="m 290.53643,218.65224 c 0,-28.66878 22.42361,-51.93353 50.09528,-51.93353 27.654,0 50.0776,23.26475 50.0776,51.93353 0,28.68709 -22.4236,51.93353 -50.0776,51.93353 -27.67167,0 -50.09528,-23.24644 -50.09528,-51.93353"
     id="path16"
     inkscape:connector-curvature="0" />
  <path
     style="fill:none;stroke:#148ec6;stroke-width:1.33735812px;stroke-linecap:butt;stroke-linejoin:miter;stroke-miterlimit:8;stroke-dasharray:none;stroke-opacity:1"
     d="m 132.29015,122.20425 c 0,-38.24029 29.89812,-69.235544 66.78486,-69.235544 36.88673,0 66.78487,30.995254 66.78487,69.235544 0,38.2403 -29.89814,69.23555 -66.78487,69.23555 -36.88674,0 -66.78486,-30.99525 -66.78486,-69.23555"
     id="path18"
     inkscape:connector-curvature="0" />
  <path
     style="fill:#ffffff;fill-opacity:1;fill-rule:evenodd;stroke:none;stroke-width:1"
     d="m 214.20078,103.63825 c 0,-0.8793 0.6803,-1.58457 1.51964,-1.58457 h 24.08461 c 0.83934,0 1.51965,0.70527 1.51965,1.58457 v 6.31079 c 0,0.8793 -0.68031,1.58457 -1.51965,1.58457 h -24.08461 c -0.83934,0 -1.51964,-0.70527 -1.51964,-1.58457 z"
     id="path38"
     inkscape:connector-curvature="0" />
  <path
     style="fill:none;stroke:#148ec6;stroke-width:1.33735812px;stroke-linecap:butt;stroke-linejoin:miter;stroke-miterlimit:8;stroke-dasharray:none;stroke-opacity:1"
     d="m 214.20078,103.63825 c 0,-0.8793 0.6803,-1.58457 1.51964,-1.58457 h 24.08461 c 0.83934,0 1.51965,0.70527 1.51965,1.58457 v 6.31079 c 0,0.8793 -0.68031,1.58457 -1.51965,1.58457 h -24.08461 c -0.83934,0 -1.51964,-0.70527 -1.51964,-1.58457 z"
     id="path40"
     inkscape:connector-curvature="0" />
  <path
     style="fill:#ffffff;fill-opacity:1;fill-rule:evenodd;stroke:none;stroke-width:1"
     d="m 165.74884,84.696703 c 0,-0.870133 0.68031,-1.584569 1.51965,-1.584569 h 28.41383 c 0.83933,0 1.51964,0.714436 1.51964,1.584569 v 6.319954 c 0,0.870141 -0.68031,1.575411 -1.51964,1.575411 h -28.41383 c -0.83934,0 -1.51965,-0.70527 -1.51965,-1.575411 z"
     id="path42"
     inkscape:connector-curvature="0" />
  <path
     style="fill:none;stroke:#148ec6;stroke-width:1.33735812px;stroke-linecap:butt;stroke-linejoin:miter;stroke-miterlimit:8;stroke-dasharray:none;stroke-opacity:1"
     d="m 165.74884,84.696703 c 0,-0.870133 0.68031,-1.584569 1.51965,-1.584569 h 28.41383 c 0.83933,0 1.51964,0.714436 1.51964,1.584569 v 6.319954 c 0,0.870141 -0.68031,1.575411 -1.51964,1.575411 h -28.41383 c -0.83934,0 -1.51965,-0.70527 -1.51965,-1.575411 z"
     id="path44"
     inkscape:connector-curvature="0" />
  <path
     style="fill:#ffffff;fill-opacity:1;fill-rule:evenodd;stroke:none;stroke-width:1"
     d="m 142.87465,132.89322 c 0,-0.90678 0.70681,-1.63953 1.58149,-1.63953 h 28.29897 c 0.86585,0 1.57265,0.73275 1.57265,1.63953 v 6.53978 c 0,0.90678 -0.7068,1.63952 -1.57265,1.63952 h -28.29897 c -0.87468,0 -1.58149,-0.73274 -1.58149,-1.63952 z"
     id="path46"
     inkscape:connector-curvature="0" />
  <path
     style="fill:none;stroke:#148ec6;stroke-width:1.33735812px;stroke-linecap:butt;stroke-linejoin:miter;stroke-miterlimit:8;stroke-dasharray:none;stroke-opacity:1"
     d="m 142.87465,132.89322 c 0,-0.90678 0.70681,-1.63953 1.58149,-1.63953 h 28.29897 c 0.86585,0 1.57265,0.73275 1.57265,1.63953 v 6.53978 c 0,0.90678 -0.7068,1.63952 -1.57265,1.63952 h -28.29897 c -0.87468,0 -1.58149,-0.73274 -1.58149,-1.63952 z"
     id="path48"
     inkscape:connector-curvature="0" />
  <path
     style="fill:#ffffff;fill-opacity:1;fill-rule:evenodd;stroke:none;stroke-width:1"
     d="m 210.17195,125.90463 c 0,-0.8793 0.68031,-1.58457 1.51965,-1.58457 h 24.0846 c 0.83934,0 1.51965,0.70527 1.51965,1.58457 v 6.31079 c 0,0.87931 -0.68031,1.58457 -1.51965,1.58457 h -24.0846 c -0.83934,0 -1.51965,-0.70526 -1.51965,-1.58457 z"
     id="path50"
     inkscape:connector-curvature="0" />
  <path
     style="fill:none;stroke:#148ec6;stroke-width:1.33735812px;stroke-linecap:butt;stroke-linejoin:miter;stroke-miterlimit:8;stroke-dasharray:none;stroke-opacity:1"
     d="m 210.17195,125.90463 c 0,-0.8793 0.68031,-1.58457 1.51965,-1.58457 h 24.0846 c 0.83934,0 1.51965,0.70527 1.51965,1.58457 v 6.31079 c 0,0.87931 -0.68031,1.58457 -1.51965,1.58457 h -24.0846 c -0.83934,0 -1.51965,-0.70526 -1.51965,-1.58457 z"
     id="path52"
     inkscape:connector-curvature="0" />
  <path
     style="fill:#ffffff;fill-opacity:1;fill-rule:evenodd;stroke:none;stroke-width:1"
     d="m 200.63,156.24957 c 0,-0.87014 0.68913,-1.57541 1.52847,-1.57541 h 24.08461 c 0.83934,0 1.51965,0.70527 1.51965,1.57541 v 6.31995 c 0,0.87014 -0.68031,1.58457 -1.51965,1.58457 h -24.08461 c -0.83934,0 -1.52847,-0.71443 -1.52847,-1.58457 z"
     id="path54"
     inkscape:connector-curvature="0" />
  <path
     style="fill:none;stroke:#148ec6;stroke-width:1.33735812px;stroke-linecap:butt;stroke-linejoin:miter;stroke-miterlimit:8;stroke-dasharray:none;stroke-opacity:1"
     d="m 200.63,156.24957 c 0,-0.87014 0.68913,-1.57541 1.52847,-1.57541 h 24.08461 c 0.83934,0 1.51965,0.70527 1.51965,1.57541 v 6.31995 c 0,0.87014 -0.68031,1.58457 -1.51965,1.58457 h -24.08461 c -0.83934,0 -1.52847,-0.71443 -1.52847,-1.58457 z"
     id="path56"
     inkscape:connector-curvature="0" />
  <path
     style="fill:#148ec6;fill-opacity:1;fill-rule:nonzero;stroke:#148ec6;stroke-width:0.01996057px;stroke-linecap:butt;stroke-linejoin:round;stroke-miterlimit:10;stroke-dasharray:none;stroke-opacity:1"
     d="m 197.21079,87.700971 0.40642,0.01833 0.40642,0.03658 0.80399,0.16487 0.79517,0.256464 0.76866,0.357214 0.74214,0.430492 0.71566,0.522076 0.6803,0.577039 0.6273,0.650316 0.58312,0.696113 0.51244,0.751067 0.46825,0.796863 0.38875,0.833503 0.30923,0.851817 0.23855,0.879299 0.14136,0.897614 0.053,0.897614 0.0442,0.888456 v -0.01833 l 0.14135,0.879299 v -0.0092 l 0.22972,0.860983 -0.009,-0.0092 0.30922,0.84266 -0.009,-0.0183 0.38874,0.82435 -0.009,-0.0183 0.45943,0.7877 -0.009,-0.009 0.51244,0.7419 v -0.009 l 0.56545,0.68696 -0.009,-0.009 0.62729,0.64115 -0.009,-0.009 0.66263,0.56789 -0.009,-0.009 0.69798,0.51291 -0.0265,-0.0183 1.01604,0.42134 -0.10602,0.28393 -1.04255,-0.43049 -0.71565,-0.52208 -0.67147,-0.57703 -0.63612,-0.65032 -0.57429,-0.69611 -0.52127,-0.75107 -0.46827,-0.79686 -0.38874,-0.8335 -0.30923,-0.85182 -0.23855,-0.8793 -0.14137,-0.897622 -0.053,-0.897614 -0.0442,-0.888457 v 0.01833 l -0.14136,-0.87929 v 0.0092 l -0.22971,-0.860975 0.009,0.0092 -0.30922,-0.84266 v 0.01833 l -0.37992,-0.824345 0.009,0.01833 -0.45943,-0.787706 0.009,0.0092 -0.51244,-0.74191 0.009,0.0092 -0.57429,-0.686947 0.009,0.0092 -0.61846,-0.64115 0.009,0.0092 -0.67148,-0.567873 0.009,0.0092 -0.69797,-0.512927 0.009,0.0092 -0.73331,-0.421326 h 0.0177 l -0.75982,-0.348057 0.0177,0.0092 -0.77749,-0.256464 h 0.0177 l -0.79515,-0.155704 0.0177,0.0092 -0.39758,-0.04583 h 0.009 l -0.39758,-0.0092 z m 14.05672,16.349449 2.93327,2.74781 -3.87863,0.7877 z"
     id="path58"
     inkscape:connector-curvature="0" />
  <path
     style="fill:#148ec6;fill-opacity:1;fill-rule:nonzero;stroke:#148ec6;stroke-width:0.01996057px;stroke-linecap:butt;stroke-linejoin:round;stroke-miterlimit:10;stroke-dasharray:none;stroke-opacity:1"
     d="m 241.32468,106.95393 0.49476,0.0183 h -0.009 l 0.5036,0.0458 -0.0177,-0.009 0.49477,0.0824 h -0.009 l 0.49476,0.10992 h -0.009 l 0.48593,0.12823 h -0.009 l 0.48593,0.16487 -0.009,-0.009 0.94537,0.41217 -0.0177,-0.009 0.91885,0.50376 -0.0177,-0.009 0.88352,0.59536 h -0.009 l 0.8305,0.66863 -0.009,-0.009 0.76866,0.75106 -0.009,-0.009 0.71565,0.81519 -0.009,-0.009 0.64497,0.87014 -0.009,-0.0183 0.56545,0.9251 -0.009,-0.009 0.48594,0.96173 -0.009,-0.0183 0.37991,0.99836 v -0.009 l 0.15904,0.50377 v -0.009 l 0.12368,0.51291 v -0.009 l 0.10603,0.51292 -0.009,-0.009 0.0795,0.52208 v -0.009 l 0.0442,0.52209 v -0.009 l 0.0177,0.52208 v -0.009 l -0.0265,0.52209 v -0.0183 l -0.0618,0.52207 0.009,-0.009 -0.10602,0.52209 v -0.0183 l -0.14136,0.51292 0.009,-0.009 -0.18554,0.51292 0.009,-0.009 -0.22087,0.51293 0.009,-0.009 -0.24738,0.49461 v -0.009 l -0.28272,0.49461 v -0.009 l -0.30923,0.48544 v -0.009 l -0.34457,0.47629 v 0 l -0.37108,0.46712 v -0.009 l -0.39758,0.45796 v -0.009 l -0.43292,0.4488 0.009,-0.009 -0.45943,0.43048 0.009,-0.009 -0.9807,0.81518 0.009,-0.009 -1.06906,0.75107 0.009,-0.009 -1.14856,0.67779 0.009,-0.009 -1.21041,0.59536 h 0.009 l -1.26343,0.50376 h 0.0177 l -1.3076,0.40302 h 0.0177 l -1.13973,0.2015 0.0442,0.30226 1.1574,-0.21067 1.31644,-0.41217 1.27226,-0.50376 1.21925,-0.60452 1.1574,-0.67779 1.07789,-0.76022 0.98954,-0.81519 0.45942,-0.43049 0.44176,-0.44881 0.40641,-0.46713 0.37992,-0.46712 0.35341,-0.48545 0.31806,-0.4946 0.29155,-0.49461 0.25623,-0.50376 0.21204,-0.52209 0.18555,-0.52208 0.15019,-0.52208 0.0972,-0.53124 0.0707,-0.53124 0.0177,-0.53125 -0.009,-0.5404 -0.053,-0.53124 -0.0795,-0.52208 -0.0972,-0.52209 -0.13253,-0.52208 -0.15903,-0.51293 -0.38875,-1.00752 -0.49476,-0.97089 -0.56546,-0.93426 -0.65379,-0.87929 -0.72449,-0.82435 -0.77749,-0.76022 -0.83933,-0.67779 -0.89236,-0.60452 -0.92769,-0.51293 -0.95419,-0.41217 -0.49477,-0.16487 -0.49477,-0.13739 -0.49477,-0.10991 -0.50361,-0.0824 -0.50359,-0.0458 -0.5036,-0.0183 z m -0.71565,19.8758 -3.31318,2.23488 3.7196,1.40138 z"
     id="path60"
     inkscape:connector-curvature="0" />
  <path
     style="fill:#148ec6;fill-opacity:1;fill-rule:nonzero;stroke:#148ec6;stroke-width:0.01996057px;stroke-linecap:butt;stroke-linejoin:round;stroke-miterlimit:10;stroke-dasharray:none;stroke-opacity:1"
     d="m 210.17195,128.9089 -0.95419,0.0275 -0.94537,0.0641 -0.94535,0.10075 -0.93653,0.15571 -0.93652,0.18319 -0.91886,0.22898 -0.91002,0.25646 -0.89235,0.30226 -0.88351,0.32058 -0.87468,0.36637 -0.83934,0.39385 -0.83051,0.42134 -0.80399,0.4488 -0.7775,0.47629 -0.75982,0.50376 -0.72448,0.52209 -0.69798,0.54956 -0.66263,0.56788 -0.63614,0.58619 -0.60079,0.60452 -0.56545,0.632 -0.52127,0.64115 -0.47709,0.65032 -0.44176,0.66863 -0.39758,0.67779 -0.34458,0.69611 -0.30039,0.69612 -0.24739,0.70527 -0.2032,0.71443 -0.14137,0.71442 -0.0883,0.72359 -0.0265,0.72359 0.009,0.72359 0.053,0.71443 0.0707,0.71443 0.10602,0.70527 0.13253,0.70527 0.15903,0.69611 0.38874,1.36474 0.48594,1.31895 0.56545,1.27315 0.6538,1.19071 0.71565,1.11745 0.77749,1.035 0.41525,0.47629 0.42409,0.44881 0.44176,0.43049 0.45059,0.39385 0.45943,0.36637 0.46826,0.32974 0.48593,0.30226 0.60963,0.19235 0.0795,-0.2931 -0.58312,-0.18319 0.0353,0.0183 -0.46825,-0.2931 v 0 l -0.45943,-0.32058 h 0.009 l -0.45059,-0.35721 v 0 l -0.44176,-0.38469 v 0 l -0.43292,-0.42133 0.009,0.009 -0.42409,-0.44881 0.009,0.009 -0.41525,-0.47628 0.009,0.009 -0.76865,-1.02584 v 0.009 l -0.70681,-1.10828 v 0.009 l -0.64496,-1.18156 0.009,0.009 -0.56545,-1.25483 0.009,0.009 -0.48593,-1.30979 v 0.009 l -0.37991,-1.35559 v 0.009 l -0.15903,-0.68696 v 0 l -0.12369,-0.69611 v 0.009 l -0.10602,-0.70528 0.009,0.009 -0.0795,-0.70526 v 0 l -0.0442,-0.70528 v 0.009 l -0.0177,-0.71443 v 0.009 l 0.0353,-0.71443 v 0.009 l 0.0795,-0.70527 v 0.009 l 0.14136,-0.70528 -0.009,0.0183 0.19437,-0.70527 v 0.009 l 0.24739,-0.69611 v 0.009 l 0.29156,-0.68695 v 0.009 l 0.34457,-0.68695 -0.009,0.009 0.39758,-0.66863 h -0.009 l 0.43292,-0.65947 v 0.009 l 0.4771,-0.6503 -0.009,0.009 0.52128,-0.63199 h -0.009 l 0.55662,-0.62284 v 0.009 l 0.59195,-0.60452 v 0.009 l 0.6273,-0.5862 h -0.009 l 0.66263,-0.55872 v 0 l 0.68915,-0.5404 h -0.009 l 0.72448,-0.52209 h -0.009 l 0.75098,-0.4946 v 0 l 0.76866,-0.46713 v 0 l 0.804,-0.44881 h -0.009 l 0.82167,-0.41217 v 0 l 0.83934,-0.38469 h -0.009 l 0.86584,-0.36638 -0.009,0.009 0.88351,-0.32974 h -0.009 l 0.89235,-0.2931 h -0.009 l 0.91003,-0.25647 h -0.009 l 0.91885,-0.21981 h -0.009 l 0.9277,-0.19235 h -0.009 l 0.93652,-0.14655 -0.009,0.009 0.93653,-0.1099 v 0 l 0.93653,-0.0641 h -0.009 l 0.94536,-0.0183 z m -13.42058,31.27003 3.87863,-0.76939 -2.9156,-2.75696 z"
     id="path62"
     inkscape:connector-curvature="0" />
  <path
     style="fill:#148ec6;fill-opacity:1;fill-rule:nonzero;stroke:#148ec6;stroke-width:0.01996057px;stroke-linecap:butt;stroke-linejoin:round;stroke-miterlimit:10;stroke-dasharray:none;stroke-opacity:1"
     d="m 214.05058,164.14493 -0.0353,0.51292 v -0.0275 l -0.11486,0.52208 v -0.0275 l -0.19438,0.51292 0.009,-0.0183 -0.26506,0.51292 0.009,-0.0183 -0.34457,0.50376 0.009,-0.009 -0.40642,0.50377 0.009,-0.009 -0.4771,0.4946 0.009,-0.009 -0.53894,0.48544 v -0.009 l -0.60079,0.48544 0.009,-0.009 -0.6538,0.46713 v 0 l -0.71565,0.45796 h 0.009 l -0.76865,0.44881 h 0.009 l -0.82167,0.43049 v 0 l -0.86584,0.42134 h 0.009 l -0.91885,0.41216 0.009,-0.009 -0.9542,0.39385 v 0 l -0.99837,0.3847 h 0.009 l -1.04254,0.35721 h 0.009 l -1.06905,0.33889 v 0 l -1.10439,0.32058 v 0 l -1.13091,0.30226 v 0 l -1.1574,0.28394 v 0 l -2.39432,0.50376 v 0 l -2.48268,0.39386 h 0.009 l -1.26343,0.16487 v 0 l -1.27226,0.12823 v 0 l -1.28993,0.10991 h 0.009 l -1.29877,0.0733 v 0 l -1.29877,0.055 h 0.009 l -1.3076,0.009 h 0.009 l -1.29877,-0.0458 h 0.009 l -1.29877,-0.14655 h 0.009 l -1.29877,-0.23814 h 0.009 l -1.28993,-0.32974 0.009,0.009 -1.27227,-0.42133 h 0.009 l -1.26342,-0.50376 0.009,0.009 -1.2546,-0.5862 0.009,0.009 -1.22808,-0.65948 h 0.009 l -1.21041,-0.73275 h 0.009 l -1.19275,-0.80602 h 0.009 l -1.16624,-0.87929 v 0.009 l -1.13089,-0.94341 0.009,0.009 -1.10439,-1.00753 0.009,0.009 -1.07788,-1.07164 v 0.009 l -1.03442,-1.11735 h 0.009 l -0.99837,-1.17241 v 0.009 l -0.95419,-1.22735 0.009,0.009 -0.91886,-1.27315 0.009,0.009 -0.86585,-1.3098 v 0 l -0.82166,-1.34642 v 0 l -0.76866,-1.39222 0.009,0.009 -0.71565,-1.42885 0.009,0.009 -0.66264,-1.45633 v 0.009 l -0.60079,-1.48381 h 0.009 l -0.53894,-1.5113 v 0.009 l -0.4771,-1.52962 v 0.009 l -0.40642,-1.54793 v 0 l -0.34457,-1.56625 v 0.009 l -0.26506,-1.57541 v 0.009 l -0.1767,-1.73112 -0.29156,0.0275 0.1767,1.74029 0.27389,1.58456 0.33574,1.57541 0.41525,1.55709 0.4771,1.52961 0.53895,1.52045 0.60962,1.49298 0.66263,1.45633 0.70682,1.42887 0.77749,1.40137 0.82167,1.35559 0.86584,1.31895 0.91886,1.27315 0.96303,1.22735 0.99837,1.18156 1.04254,1.11744 1.07789,1.07164 1.1044,1.00754 1.13973,0.94341 1.16624,0.88845 1.20158,0.80602 1.21042,0.74191 1.23691,0.65948 1.26343,0.58619 1.26343,0.51292 1.28992,0.42134 1.29878,0.32974 1.3076,0.23814 1.3076,0.14655 1.3076,0.0549 1.3076,-0.0183 1.30761,-0.0458 1.29875,-0.0824 1.28994,-0.10075 1.2811,-0.1374 1.26342,-0.16486 2.49151,-0.40301 2.40316,-0.4946 1.16624,-0.28395 1.13973,-0.30226 1.10439,-0.32973 1.07789,-0.34806 1.03372,-0.35721 1.00721,-0.37554 0.95419,-0.40301 0.91885,-0.40301 0.87469,-0.43048 0.82166,-0.43965 0.76866,-0.44882 0.72448,-0.46712 0.66264,-0.47629 0.60963,-0.48544 0.54778,-0.48545 0.48592,-0.50376 0.41526,-0.51293 0.3534,-0.51292 0.27389,-0.52208 0.20321,-0.54041 0.12369,-0.53124 0.0442,-0.53124 z m -53.46147,-19.52774 -1.9879,-3.54467 -1.54615,3.76449 z"
     id="path64"
     inkscape:connector-curvature="0" />
  <path
     style="fill:#148ec6;fill-opacity:1;fill-rule:nonzero;stroke:#148ec6;stroke-width:0.01996057px;stroke-linecap:butt;stroke-linejoin:round;stroke-miterlimit:10;stroke-dasharray:none;stroke-opacity:1"
     d="m 158.45985,131.25369 0.0177,-0.91593 0.0441,-0.90677 0.0795,-0.90678 0.11485,-0.89762 0.14137,-0.89762 0.16786,-0.87929 0.19438,-0.87931 0.22088,-0.86097 0.53011,-1.67617 0.60962,-1.60288 0.69797,-1.52045 0.37992,-0.72359 0.39757,-0.69611 0.41526,-0.66864 0.42409,-0.64115 0.44176,-0.61367 0.45942,-0.56788 0.46826,-0.54956 0.48594,-0.49461 0.49477,-0.46713 0.5036,-0.42133 0.52127,-0.37553 0.52127,-0.3389 0.53011,-0.29309 0.53011,-0.23815 0.54778,-0.19234 0.53895,-0.1374 0.54777,-0.0916 0.54778,-0.0275 0.53895,-0.0275 h -0.0177 l 0.53895,-0.0824 -0.0177,0.009 0.53011,-0.13739 h -0.009 l 0.53011,-0.18319 h -0.009 l 0.52128,-0.23815 -0.009,0.009 0.52128,-0.28393 h -0.009 l 0.51244,-0.32974 -0.009,0.009 0.50361,-0.37554 v 0 l 0.49476,-0.41217 -0.009,0.009 0.49477,-0.45797 h -0.009 l 0.4771,-0.4946 v 0 l 0.46826,-0.53125 -0.009,0.009 0.45059,-0.57704 v 0.009 l 0.44176,-0.60452 -0.009,0.009 0.42409,-0.64115 v 0.009 l 0.40641,-0.66864 v 0.009 l 0.39758,-0.69611 -0.009,0.009 0.37991,-0.72358 -0.009,0.009 0.69798,-1.5113 -0.009,0.009 0.60962,-1.60288 v 0.009 l 0.52127,-1.666996 v 0.0092 l 0.22088,-0.851818 v 0 l 0.19437,-0.870141 v 0.0092 l 0.16787,-0.879307 -0.009,0.0092 0.18554,-1.44718 0.29156,0.03666 -0.18554,1.456329 -0.16786,0.879307 -0.19438,0.879291 -0.22088,0.860983 -0.52127,1.676162 -0.61846,1.61204 -0.69798,1.52046 -0.37991,0.72359 -0.38874,0.69611 -0.41525,0.66863 -0.43292,0.64115 -0.44176,0.60452 -0.4506,0.57704 -0.47709,0.5404 -0.48593,0.50377 -0.49477,0.46712 -0.50361,0.42133 -0.51244,0.37554 -0.52127,0.33889 -0.53011,0.28395 -0.5301,0.2473 -0.54779,0.19235 -0.54777,0.13739 -0.54778,0.0916 -0.53895,0.0275 -0.53894,0.0275 0.009,-0.009 -0.53011,0.0824 h 0.0177 l -0.5301,0.13739 h 0.009 l -0.53011,0.18318 h 0.009 l -0.52127,0.22898 h 0.009 l -0.52127,0.28395 h 0.009 l -0.51244,0.32973 0.009,-0.009 -0.51245,0.37554 0.009,-0.009 -0.5036,0.42133 0.009,-0.009 -0.48593,0.45797 h 0.009 l -0.48594,0.4946 0.009,-0.009 -0.46827,0.5404 0.009,-0.009 -0.45942,0.56788 h 0.009 l -0.44175,0.60452 v -0.009 l -0.42408,0.63199 v 0 l -0.40642,0.65948 v 0 l -0.38875,0.68695 v 0 l -0.37107,0.71443 v 0 l -0.68915,1.51129 v -0.009 l -0.60962,1.59372 v -0.009 l -0.52128,1.667 0.009,-0.009 -0.22088,0.86097 v -0.009 l -0.19437,0.87014 v 0 l -0.16787,0.8793 v -0.009 l -0.14136,0.88846 v 0 l -0.11486,0.88845 0.009,-0.009 -0.0795,0.90677 v -0.009 l -0.053,0.90678 v -0.009 l -0.0177,0.90678 z m 20.9923,-35.144435 2.02325,-3.517187 1.50198,3.791974 z"
     id="path66"
     inkscape:connector-curvature="0" />
  <path
     style="fill:#ffffff;fill-opacity:1;fill-rule:evenodd;stroke:none;stroke-width:1"
     d="m 312.25322,206.36039 c 0,-0.80602 0.61846,-1.44718 1.39595,-1.44718 h 57.32243 c 0.77749,0 1.39595,0.64116 1.39595,1.44718 v 5.77039 c 0,0.7877 -0.61846,1.42885 -1.39595,1.42885 h -57.32243 c -0.77749,0 -1.39595,-0.64115 -1.39595,-1.42885 z"
     id="path68"
     inkscape:connector-curvature="0" />
  <path
     style="fill:none;stroke:#f7941e;stroke-width:1.31739748px;stroke-linecap:butt;stroke-linejoin:miter;stroke-miterlimit:8;stroke-dasharray:none;stroke-opacity:1"
     d="m 312.25322,206.36039 c 0,-0.80602 0.61846,-1.44718 1.39595,-1.44718 h 57.32243 c 0.77749,0 1.39595,0.64116 1.39595,1.44718 v 5.77039 c 0,0.7877 -0.61846,1.42885 -1.39595,1.42885 h -57.32243 c -0.77749,0 -1.39595,-0.64115 -1.39595,-1.42885 z"
     id="path70"
     inkscape:connector-curvature="0" />
  <path
     style="fill:#ffffff;fill-opacity:1;fill-rule:evenodd;stroke:none;stroke-width:1"
     d="m 312.25322,216.71046 c 0,-0.78771 0.61846,-1.44718 1.39595,-1.44718 h 57.32243 c 0.77749,0 1.39595,0.65947 1.39595,1.44718 v 5.77039 c 0,0.7877 -0.61846,1.44717 -1.39595,1.44717 h -57.32243 c -0.77749,0 -1.39595,-0.65947 -1.39595,-1.44717 z"
     id="path72"
     inkscape:connector-curvature="0" />
  <path
     style="fill:none;stroke:#f7941e;stroke-width:1.31739748px;stroke-linecap:butt;stroke-linejoin:miter;stroke-miterlimit:8;stroke-dasharray:none;stroke-opacity:1"
     d="m 312.25322,216.71046 c 0,-0.78771 0.61846,-1.44718 1.39595,-1.44718 h 57.32243 c 0.77749,0 1.39595,0.65947 1.39595,1.44718 v 5.77039 c 0,0.7877 -0.61846,1.44717 -1.39595,1.44717 h -57.32243 c -0.77749,0 -1.39595,-0.65947 -1.39595,-1.44717 z"
     id="path74"
     inkscape:connector-curvature="0" />
  <path
     style="fill:#ffffff;fill-opacity:1;fill-rule:evenodd;stroke:none;stroke-width:1"
     d="m 312.25322,226.98725 c 0,-0.7877 0.61846,-1.44718 1.39595,-1.44718 h 57.32243 c 0.77749,0 1.39595,0.65948 1.39595,1.44718 v 5.77039 c 0,0.80602 -0.61846,1.44718 -1.39595,1.44718 h -57.32243 c -0.77749,0 -1.39595,-0.64116 -1.39595,-1.44718 z"
     id="path76"
     inkscape:connector-curvature="0" />
  <path
     style="fill:none;stroke:#f7941e;stroke-width:1.31739748px;stroke-linecap:butt;stroke-linejoin:miter;stroke-miterlimit:8;stroke-dasharray:none;stroke-opacity:1"
     d="m 312.25322,226.98725 c 0,-0.7877 0.61846,-1.44718 1.39595,-1.44718 h 57.32243 c 0.77749,0 1.39595,0.65948 1.39595,1.44718 v 5.77039 c 0,0.80602 -0.61846,1.44718 -1.39595,1.44718 h -57.32243 c -0.77749,0 -1.39595,-0.64116 -1.39595,-1.44718 z"
     id="path78"
     inkscape:connector-curvature="0" />
  <path
     style="fill:#ffffff;fill-opacity:1;fill-rule:evenodd;stroke:none;stroke-width:1"
     d="m 312.25322,237.37395 c 0,-0.7877 0.61846,-1.42886 1.39595,-1.42886 h 57.32243 c 0.77749,0 1.39595,0.64116 1.39595,1.42886 v 5.7704 c 0,0.80602 -0.61846,1.44718 -1.39595,1.44718 h -57.32243 c -0.77749,0 -1.39595,-0.64116 -1.39595,-1.44718 z"
     id="path80"
     inkscape:connector-curvature="0" />
  <path
     style="fill:none;stroke:#f7941e;stroke-width:1.31739748px;stroke-linecap:butt;stroke-linejoin:miter;stroke-miterlimit:8;stroke-dasharray:none;stroke-opacity:1"
     d="m 312.25322,237.37395 c 0,-0.7877 0.61846,-1.42886 1.39595,-1.42886 h 57.32243 c 0.77749,0 1.39595,0.64116 1.39595,1.42886 v 5.7704 c 0,0.80602 -0.61846,1.44718 -1.39595,1.44718 h -57.32243 c -0.77749,0 -1.39595,-0.64116 -1.39595,-1.44718 z"
     id="path82"
     inkscape:connector-curvature="0" />
  <path
     style="fill:none;stroke:#44546a;stroke-width:1.31739748px;stroke-linecap:butt;stroke-linejoin:miter;stroke-miterlimit:8;stroke-dasharray:none;stroke-opacity:1"
     d="m 8.0768323,218.65224 c 0,-28.66878 22.4235987,-51.93353 50.0952747,-51.93353 27.671674,0 50.095283,23.26475 50.095283,51.93353 0,28.68709 -22.423609,51.93353 -50.095283,51.93353 -27.671676,0 -50.0952747,-23.24644 -50.0952747,-51.93353"
     id="path84"
     inkscape:connector-curvature="0" />
  <g
     aria-label="States"
     style="font-style:normal;font-variant:normal;font-weight:400;font-size:23.9375px;line-height:125%;font-family:'Roboto Condensed';text-align:start;letter-spacing:0px;word-spacing:0px;text-anchor:start;fill:#000000;fill-opacity:1;stroke:none;stroke-width:2.21887922"
     id="text90"
     transform="matrix(0.44262994,0,0,0.45887234,-0.79623973,17.473987)">
    <path
       d="m 430.75919,34.007801 q 0,-1.274017 -0.68961,-1.951935 -0.68961,-0.677917 -2.48959,-1.32077 -1.79999,-0.642853 -2.75843,-1.344147 -0.94674,-0.712982 -1.42596,-1.612976 -0.46753,-0.911682 -0.46753,-2.080505 0,-2.022064 1.34415,-3.331146 1.35583,-1.309082 3.54153,-1.309082 1.49609,0 2.66492,0.677917 1.16882,0.666229 1.79999,1.858429 0.63116,1.1922 0.63116,2.618164 h -2.15063 q 0,-1.577911 -0.75974,-2.442841 -0.75973,-0.864929 -2.1857,-0.864929 -1.29739,0 -2.01037,0.724671 -0.71299,0.72467 -0.71299,2.033752 0,1.075317 0.77143,1.799988 0.77142,0.72467 2.3844,1.297394 2.51297,0.829864 3.58828,2.04544 1.08701,1.215577 1.08701,3.1792 0,2.068817 -1.34415,3.319458 -1.34414,1.238952 -3.65841,1.238952 -1.48441,0 -2.74674,-0.642853 -1.25064,-0.654541 -1.97531,-1.823364 -0.71298,-1.180511 -0.71298,-2.699981 h 2.15063 q 0,1.577911 0.87662,2.454528 0.88831,0.876618 2.40778,0.876618 1.41427,0 2.12725,-0.724671 0.71299,-0.72467 0.71299,-1.975311 z"
       style="font-style:normal;font-variant:normal;font-weight:400;font-size:23.9375px;font-family:'Roboto Condensed';fill:#148ec6;stroke-width:2.21887922"
       id="path1077"
       inkscape:connector-curvature="0" />
    <path
       d="m 438.13446,22.600086 v 3.062317 h 1.90518 v 1.671417 h -1.90518 v 7.842804 q 0,0.748047 0.24545,1.133759 0.24546,0.385712 0.84156,0.385712 0.40908,0 0.82986,-0.140259 l -0.0234,1.753235 q -0.70129,0.233764 -1.43765,0.233764 -1.22726,0 -1.87012,-0.876617 -0.64285,-0.876618 -0.64285,-2.477905 V 27.33382 h -1.92856 v -1.671417 h 1.92856 v -3.062317 z"
       style="font-style:normal;font-variant:normal;font-weight:400;font-size:23.9375px;font-family:'Roboto Condensed';fill:#148ec6;stroke-width:2.21887922"
       id="path1079"
       inkscape:connector-curvature="0" />
    <path
       d="m 448.99283,38.309071 q -0.18701,-0.409089 -0.26883,-1.379212 -1.09869,1.612976 -2.80518,1.612976 -1.71817,0 -2.68829,-0.958435 -0.95844,-0.970123 -0.95844,-2.723358 0,-1.928558 1.30909,-3.062317 1.30908,-1.133758 3.58828,-1.157135 h 1.51947 v -1.344147 q 0,-1.133758 -0.50259,-1.612976 -0.50259,-0.479217 -1.53116,-0.479217 -0.93506,0 -1.51947,0.561035 -0.58441,0.549347 -0.58441,1.402588 h -2.06882 q 0,-0.970123 0.57273,-1.846741 0.57272,-0.888306 1.54284,-1.3909 0.97013,-0.502594 2.16233,-0.502594 1.94024,0 2.94543,0.970124 1.01688,0.958435 1.04025,2.805176 v 6.381774 q 0.0117,1.461029 0.3974,2.536347 v 0.187012 z m -2.75842,-1.648041 q 0.75973,0 1.44934,-0.420777 0.6896,-0.420776 1.00518,-1.05194 v -3.015564 h -1.16882 q -1.47272,0.02338 -2.32596,0.666229 -0.85324,0.631164 -0.85324,1.776611 0,1.075318 0.43247,1.566223 0.43246,0.479218 1.46103,0.479218 z"
       style="font-style:normal;font-variant:normal;font-weight:400;font-size:23.9375px;font-family:'Roboto Condensed';fill:#148ec6;stroke-width:2.21887922"
       id="path1081"
       inkscape:connector-curvature="0" />
    <path
       d="m 456.64862,22.600086 v 3.062317 h 1.90518 v 1.671417 h -1.90518 v 7.842804 q 0,0.748047 0.24545,1.133759 0.24546,0.385712 0.84156,0.385712 0.40908,0 0.82986,-0.140259 l -0.0234,1.753235 q -0.70129,0.233764 -1.43765,0.233764 -1.22726,0 -1.87012,-0.876617 -0.64285,-0.876618 -0.64285,-2.477905 V 27.33382 h -1.92856 v -1.671417 h 1.92856 v -3.062317 z"
       style="font-style:normal;font-variant:normal;font-weight:400;font-size:23.9375px;font-family:'Roboto Condensed';fill:#148ec6;stroke-width:2.21887922"
       id="path1083"
       inkscape:connector-curvature="0" />
    <path
       d="m 465.51999,38.542835 q -2.36102,0 -3.62335,-1.402588 -1.26233,-1.414276 -1.28571,-4.137634 v -1.531158 q 0,-2.828553 1.22727,-4.42984 1.23895,-1.612977 3.44802,-1.612977 2.22077,0 3.31946,1.414277 1.0987,1.414276 1.12207,4.406463 v 1.355835 h -7.05969 v 0.292206 q 0,2.033752 0.75974,2.957123 0.77142,0.92337 2.20907,0.92337 0.91168,0 1.60129,-0.338959 0.70129,-0.350647 1.30908,-1.098693 l 1.07532,1.309082 q -1.34415,1.893493 -4.10257,1.893493 z M 465.28622,27.20525 q -1.2857,0 -1.90518,0.888305 -0.61947,0.876618 -0.70129,2.735047 h 4.97919 v -0.280518 q -0.0818,-1.799988 -0.65455,-2.571411 -0.56103,-0.771423 -1.71817,-0.771423 z"
       style="font-style:normal;font-variant:normal;font-weight:400;font-size:23.9375px;font-family:'Roboto Condensed';fill:#148ec6;stroke-width:2.21887922"
       id="path1085"
       inkscape:connector-curvature="0" />
    <path
       d="m 478.36536,35.07143 q 0,-0.666229 -0.5026,-1.145447 -0.50259,-0.479217 -1.94024,-1.12207 -1.67142,-0.689606 -2.36103,-1.180511 -0.67791,-0.490906 -1.01687,-1.110382 -0.33896,-0.631165 -0.33896,-1.496094 0,-1.542847 1.12207,-2.559723 1.13376,-1.028565 2.88699,-1.028565 1.84674,0 2.96881,1.075318 1.12207,1.075317 1.12207,2.758423 h -2.05713 q 0,-0.853241 -0.57272,-1.449341 -0.57272,-0.607788 -1.46103,-0.607788 -0.91168,0 -1.43765,0.479217 -0.51428,0.46753 -0.51428,1.262329 0,0.631165 0.37402,1.016877 0.38571,0.385711 1.83505,1.016876 2.30258,0.899994 3.13245,1.764923 0.82986,0.853241 0.82986,2.174011 0,1.648041 -1.13375,2.641541 -1.13376,0.981811 -3.03895,0.981811 -1.97531,0 -3.20257,-1.133758 -1.22727,-1.133759 -1.22727,-2.875305 h 2.08051 q 0.0351,1.05194 0.64285,1.64804 0.60779,0.5961 1.70648,0.5961 1.02857,0 1.56623,-0.455841 0.53766,-0.467529 0.53766,-1.250641 z"
       style="font-style:normal;font-variant:normal;font-weight:400;font-size:23.9375px;font-family:'Roboto Condensed';fill:#148ec6;stroke-width:2.21887922"
       id="path1087"
       inkscape:connector-curvature="0" />
  </g>
  <g
     aria-label="WOS Api"
     style="font-style:normal;font-variant:normal;font-weight:700;font-size:23.9375px;line-height:125%;font-family:'Roboto Condensed';text-align:start;letter-spacing:0px;word-spacing:0px;text-anchor:start;fill:#000000;fill-opacity:1;stroke:none;stroke-width:2.21887922"
     id="text96"
     transform="matrix(0.44262994,0,0,0.45887234,-0.79623973,17.473987)">
    <path
       d="m 422.41772,60.728401 1.61298,-10.694732 h 3.40128 l -3.02726,17.018066 h -3.44802 l -1.987,-10.028503 -1.96363,10.028503 h -3.45971 l -3.03894,-17.018066 h 3.42465 l 1.60129,10.683044 1.99868,-10.683044 h 2.887 z"
       style="font-style:normal;font-variant:normal;font-weight:700;font-size:23.9375px;font-family:'Roboto Condensed';fill:#148ec6;stroke-width:2.21887922"
       id="path1064"
       inkscape:connector-curvature="0" />
    <path
       d="m 441.29422,60.07386 q 0,3.424652 -1.62466,5.318146 -1.61298,1.893494 -4.48829,1.893494 -2.86361,0 -4.49997,-1.870118 -1.63635,-1.881805 -1.65972,-5.259704 v -2.91037 q 0,-3.50647 1.62466,-5.470093 1.62466,-1.975311 4.51166,-1.975311 2.84024,0 4.47659,1.940246 1.63635,1.928559 1.65973,5.42334 z m -3.44803,-2.851929 q 0,-2.302581 -0.65454,-3.424652 -0.65454,-1.12207 -2.03375,-1.12207 -1.36753,0 -2.02207,1.087006 -0.65454,1.075317 -0.67791,3.284393 v 3.027252 q 0,2.232453 0.66623,3.296082 0.66622,1.051941 2.05712,1.051941 1.34415,0 1.99869,-1.028565 0.65454,-1.040253 0.66623,-3.214264 z"
       style="font-style:normal;font-variant:normal;font-weight:700;font-size:23.9375px;font-family:'Roboto Condensed';fill:#148ec6;stroke-width:2.21887922"
       id="path1066"
       inkscape:connector-curvature="0" />
    <path
       d="m 450.9487,62.58683 q 0,-1.040253 -0.53766,-1.566223 -0.52597,-0.537659 -1.92856,-1.110382 -2.55972,-0.970123 -3.68179,-2.267517 -1.12207,-1.309082 -1.12207,-3.085694 0,-2.150634 1.51947,-3.448028 1.53116,-1.309082 3.88049,-1.309082 1.56623,0 2.79349,0.666229 1.22726,0.654541 1.88181,1.858429 0.66622,1.203888 0.66622,2.735046 h -3.42465 q 0,-1.192199 -0.51428,-1.811676 -0.50259,-0.631164 -1.46103,-0.631164 -0.89999,0 -1.40259,0.537659 -0.50259,0.52597 -0.50259,1.425964 0,0.701294 0.56103,1.274017 0.56104,0.561035 1.987,1.168824 2.4896,0.899993 3.61167,2.209075 1.13376,1.309082 1.13376,3.331147 0,2.220764 -1.41428,3.471405 -1.41428,1.250641 -3.84543,1.250641 -1.64804,0 -3.00387,-0.677918 -1.35584,-0.677917 -2.12726,-1.940246 -0.75974,-1.26233 -0.75974,-2.9805 h 3.44803 q 0,1.472718 0.57272,2.138947 0.57273,0.666229 1.87012,0.666229 1.79999,0 1.79999,-1.905182 z"
       style="font-style:normal;font-variant:normal;font-weight:700;font-size:23.9375px;font-family:'Roboto Condensed';fill:#148ec6;stroke-width:2.21887922"
       id="path1068"
       inkscape:connector-curvature="0" />
    <path
       d="m 470.35117,63.568642 h -4.68699 l -0.91168,3.483093 h -3.63504 l 5.31815,-17.018066 h 3.14413 l 5.35321,17.018066 h -3.6701 z m -3.93894,-2.863617 h 3.1792 l -1.5896,-6.066193 z"
       style="font-style:normal;font-variant:normal;font-weight:700;font-size:23.9375px;font-family:'Roboto Condensed';fill:#148ec6;stroke-width:2.21887922"
       id="path1070"
       inkscape:connector-curvature="0" />
    <path
       d="m 485.66275,61.125801 q 0,2.980499 -1.02856,4.570099 -1.01688,1.5896 -3.03894,1.5896 -1.54285,0 -2.47791,-1.250641 v 5.879181 h -3.30777 V 54.405067 h 3.06232 l 0.11688,1.157135 q 0.94675,-1.390899 2.5831,-1.390899 2.02206,0 3.03894,1.472717 1.02856,1.472717 1.05194,4.511658 z m -3.29608,-0.829864 q 0,-1.835053 -0.40909,-2.594788 -0.3974,-0.759735 -1.35583,-0.759735 -1.01688,0 -1.48441,0.853241 v 5.925934 q 0.44415,0.818176 1.50778,0.818176 0.98181,0 1.35584,-0.829865 0.38571,-0.829864 0.38571,-2.583099 z"
       style="font-style:normal;font-variant:normal;font-weight:700;font-size:23.9375px;font-family:'Roboto Condensed';fill:#148ec6;stroke-width:2.21887922"
       id="path1072"
       inkscape:connector-curvature="0" />
    <path
       d="m 491.15622,67.051735 h -3.31946 V 54.405067 h 3.31946 z m -3.47141,-15.919373 q 0,-0.771423 0.49091,-1.262329 0.49091,-0.490905 1.30908,-0.490905 0.81818,0 1.30908,0.490905 0.49091,0.490906 0.49091,1.262329 0,0.759735 -0.49091,1.262329 -0.47921,0.502594 -1.30908,0.502594 -0.82986,0 -1.32077,-0.502594 -0.47922,-0.502594 -0.47922,-1.262329 z"
       style="font-style:normal;font-variant:normal;font-weight:700;font-size:23.9375px;font-family:'Roboto Condensed';fill:#148ec6;stroke-width:2.21887922"
       id="path1074"
       inkscape:connector-curvature="0" />
  </g>
  <g
     aria-label="Historical"
     style="font-style:normal;font-variant:normal;font-weight:400;font-size:23.9375px;line-height:125%;font-family:'Roboto Condensed';text-align:start;letter-spacing:0px;word-spacing:0px;text-anchor:start;fill:#000000;fill-opacity:1;stroke:none;stroke-width:2.21887922"
     id="text102"
     transform="matrix(0.44262994,0,0,0.45887234,-0.79623973,17.473987)">
    <path
       d="m 73.062546,289.6131 h -2.150635 v -7.86618 h -6.849304 v 7.86618 H 61.92366 v -17.01807 h 2.138947 v 7.31684 h 6.849304 v -7.31684 h 2.150635 z"
       style="font-style:normal;font-variant:normal;font-weight:400;font-size:23.9375px;font-family:'Roboto Condensed';fill:#44546a;stroke-width:2.21887922"
       id="path1043"
       inkscape:connector-curvature="0" />
    <path
       d="m 78.731339,289.6131 h -2.068818 v -12.64667 h 2.068818 z m 0.163635,-16.00119 q 0,0.52597 -0.292206,0.87662 -0.292206,0.35064 -0.888306,0.35064 -0.584411,0 -0.876617,-0.35064 -0.292206,-0.35065 -0.292206,-0.87662 0,-0.52597 0.292206,-0.88831 0.292206,-0.36233 0.876617,-0.36233 0.584412,0 0.876618,0.37402 0.303894,0.36234 0.303894,0.87662 z"
       style="font-style:normal;font-variant:normal;font-weight:400;font-size:23.9375px;font-family:'Roboto Condensed';fill:#44546a;stroke-width:2.21887922"
       id="path1045"
       inkscape:connector-curvature="0" />
    <path
       d="m 88.116989,286.37546 q 0,-0.66623 -0.502594,-1.14545 -0.502594,-0.47922 -1.940246,-1.12207 -1.671418,-0.68961 -2.361023,-1.18051 -0.677918,-0.49091 -1.016877,-1.11038 -0.338958,-0.63117 -0.338958,-1.4961 0,-1.54284 1.12207,-2.55972 1.133759,-1.02856 2.886993,-1.02856 1.846741,0 2.968811,1.07531 1.122071,1.07532 1.122071,2.75843 h -2.057129 q 0,-0.85324 -0.572724,-1.44934 -0.572723,-0.60779 -1.461029,-0.60779 -0.911682,0 -1.437652,0.47921 -0.514282,0.46753 -0.514282,1.26233 0,0.63117 0.374023,1.01688 0.385712,0.38571 1.835052,1.01688 2.302582,0.89999 3.132447,1.76492 0.829864,0.85324 0.829864,2.17401 0,1.64804 -1.133758,2.64154 -1.133759,0.98181 -3.038941,0.98181 -1.975311,0 -3.202575,-1.13376 -1.227265,-1.13375 -1.227265,-2.8753 h 2.080506 q 0.03506,1.05194 0.642852,1.64804 0.607788,0.5961 1.706482,0.5961 1.028565,0 1.566223,-0.45584 0.537659,-0.46753 0.537659,-1.25064 z"
       style="font-style:normal;font-variant:normal;font-weight:400;font-size:23.9375px;font-family:'Roboto Condensed';fill:#44546a;stroke-width:2.21887922"
       id="path1047"
       inkscape:connector-curvature="0" />
    <path
       d="m 95.574081,273.90411 v 3.06232 h 1.905182 v 1.67142 h -1.905182 v 7.8428 q 0,0.74805 0.245453,1.13376 0.245453,0.38571 0.841553,0.38571 0.409088,0 0.829865,-0.14026 l -0.02338,1.75324 q -0.701294,0.23376 -1.437653,0.23376 -1.227264,0 -1.870117,-0.87661 -0.642852,-0.87662 -0.642852,-2.47791 v -7.85449 h -1.928559 v -1.67142 h 1.928559 v -3.06232 z"
       style="font-style:normal;font-variant:normal;font-weight:400;font-size:23.9375px;font-family:'Roboto Condensed';fill:#44546a;stroke-width:2.21887922"
       id="path1049"
       inkscape:connector-curvature="0" />
    <path
       d="m 99.255875,282.70535 q 0,-2.75842 1.332455,-4.35971 1.34415,-1.61297 3.54154,-1.61297 2.19739,0 3.52984,1.56622 1.34415,1.56622 1.37922,4.2662 v 1.33246 q 0,2.74674 -1.33246,4.34802 -1.33246,1.60129 -3.55323,1.60129 -2.19738,0 -3.52984,-1.55453 -1.320772,-1.55454 -1.367525,-4.20777 z m 2.068815,1.1922 q 0,1.95194 0.75974,3.07401 0.77142,1.11038 2.06881,1.11038 2.73505,0 2.81687,-3.95062 v -1.42597 q 0,-1.94024 -0.77143,-3.06231 -0.77142,-1.13376 -2.06881,-1.13376 -1.27402,0 -2.04544,1.13376 -0.75974,1.12207 -0.75974,3.05062 z"
       style="font-style:normal;font-variant:normal;font-weight:400;font-size:23.9375px;font-family:'Roboto Condensed';fill:#44546a;stroke-width:2.21887922"
       id="path1051"
       inkscape:connector-curvature="0" />
    <path
       d="m 116.92848,278.90668 q -0.43246,-0.0818 -0.93506,-0.0818 -1.5896,0 -2.22076,1.74155 v 9.04669 h -2.06882 v -12.64667 h 2.01038 l 0.0351,1.28571 q 0.82987,-1.51947 2.34934,-1.51947 0.4909,0 0.81817,0.16363 z"
       style="font-style:normal;font-variant:normal;font-weight:400;font-size:23.9375px;font-family:'Roboto Condensed';fill:#44546a;stroke-width:2.21887922"
       id="path1053"
       inkscape:connector-curvature="0" />
    <path
       d="m 121.22975,289.6131 h -2.06882 v -12.64667 h 2.06882 z m 0.16364,-16.00119 q 0,0.52597 -0.29221,0.87662 -0.2922,0.35064 -0.8883,0.35064 -0.58442,0 -0.87662,-0.35064 -0.29221,-0.35065 -0.29221,-0.87662 0,-0.52597 0.29221,-0.88831 0.2922,-0.36233 0.87662,-0.36233 0.58441,0 0.87661,0.37402 0.3039,0.36234 0.3039,0.87662 z"
       style="font-style:normal;font-variant:normal;font-weight:400;font-size:23.9375px;font-family:'Roboto Condensed';fill:#44546a;stroke-width:2.21887922"
       id="path1055"
       inkscape:connector-curvature="0" />
    <path
       d="m 128.86217,288.08194 q 1.02856,0 1.64804,-0.63116 0.61947,-0.64286 0.67792,-1.82337 h 1.95193 q -0.0701,1.82337 -1.29739,3.02725 -1.21558,1.1922 -2.9805,1.1922 -2.34934,0 -3.58829,-1.47271 -1.22726,-1.48441 -1.22726,-4.40647 v -1.3909 q 0,-2.86361 1.22726,-4.34802 1.22726,-1.49609 3.5766,-1.49609 1.94025,0 3.074,1.22726 1.14545,1.22726 1.21558,3.35452 h -1.95193 q -0.0701,-1.40258 -0.67792,-2.10388 -0.5961,-0.70129 -1.65973,-0.70129 -1.37921,0 -2.04544,0.91168 -0.66623,0.89999 -0.68961,2.96881 v 1.61298 q 0,2.23245 0.65454,3.15582 0.66623,0.92337 2.0922,0.92337 z"
       style="font-style:normal;font-variant:normal;font-weight:400;font-size:23.9375px;font-family:'Roboto Condensed';fill:#44546a;stroke-width:2.21887922"
       id="path1057"
       inkscape:connector-curvature="0" />
    <path
       d="m 142.05818,289.6131 q -0.18701,-0.40909 -0.26883,-1.37921 -1.09869,1.61297 -2.80517,1.61297 -1.71817,0 -2.6883,-0.95843 -0.95843,-0.97013 -0.95843,-2.72336 0,-1.92856 1.30908,-3.06232 1.30908,-1.13376 3.58829,-1.15713 h 1.51947 v -1.34415 q 0,-1.13376 -0.5026,-1.61298 -0.50259,-0.47921 -1.53115,-0.47921 -0.93506,0 -1.51947,0.56103 -0.58442,0.54935 -0.58442,1.40259 h -2.06881 q 0,-0.97012 0.57272,-1.84674 0.57272,-0.88831 1.54285,-1.3909 0.97012,-0.50259 2.16232,-0.50259 1.94025,0 2.94543,0.97012 1.01688,0.95843 1.04026,2.80518 v 6.38177 q 0.0117,1.46103 0.3974,2.53635 v 0.18701 z m -2.75842,-1.64804 q 0.75973,0 1.44934,-0.42078 0.68961,-0.42078 1.00519,-1.05194 v -3.01556 h -1.16883 q -1.47271,0.0234 -2.32595,0.66623 -0.85324,0.63116 -0.85324,1.77661 0,1.07531 0.43246,1.56622 0.43246,0.47922 1.46103,0.47922 z"
       style="font-style:normal;font-variant:normal;font-weight:400;font-size:23.9375px;font-family:'Roboto Condensed';fill:#44546a;stroke-width:2.21887922"
       id="path1059"
       inkscape:connector-curvature="0" />
    <path
       d="m 149.23476,289.6131 h -2.06882 v -17.95313 h 2.06882 z"
       style="font-style:normal;font-variant:normal;font-weight:400;font-size:23.9375px;font-family:'Roboto Condensed';fill:#44546a;stroke-width:2.21887922"
       id="path1061"
       inkscape:connector-curvature="0" />
  </g>
  <g
     aria-label="Data"
     style="font-style:normal;font-variant:normal;font-weight:400;font-size:23.9375px;line-height:125%;font-family:'Roboto Condensed';text-align:start;letter-spacing:0px;word-spacing:0px;text-anchor:start;fill:#000000;fill-opacity:1;stroke:none;stroke-width:2.21887922"
     id="text108"
     transform="matrix(0.44262994,0,0,0.45887234,-0.79623973,17.473987)">
    <path
       d="m 158.6925,289.6131 v -17.01807 h 4.05582 q 2.9805,0 4.62854,1.87012 1.64804,1.85843 1.64804,5.23633 v 2.85193 q 0,3.37789 -1.67141,5.22464 -1.67142,1.83505 -4.85062,1.83505 z m 2.13895,-15.17133 v 13.33628 h 1.71817 q 2.25583,0 3.29608,-1.28571 1.04026,-1.29739 1.06363,-3.83374 v -3.01556 q 0,-2.6883 -1.04025,-3.93894 -1.02856,-1.26233 -3.12076,-1.26233 z"
       style="font-style:normal;font-variant:normal;font-weight:400;font-size:23.9375px;font-family:'Roboto Condensed';fill:#44546a;stroke-width:2.21887922"
       id="path1034"
       inkscape:connector-curvature="0" />
    <path
       d="m 178.5625,289.6131 q -0.18701,-0.40909 -0.26883,-1.37921 -1.09869,1.61297 -2.80518,1.61297 -1.71817,0 -2.68829,-0.95843 -0.95843,-0.97013 -0.95843,-2.72336 0,-1.92856 1.30908,-3.06232 1.30908,-1.13376 3.58829,-1.15713 h 1.51947 v -1.34415 q 0,-1.13376 -0.5026,-1.61298 -0.50259,-0.47921 -1.53116,-0.47921 -0.93506,0 -1.51947,0.56103 -0.58441,0.54935 -0.58441,1.40259 h -2.06882 q 0,-0.97012 0.57273,-1.84674 0.57272,-0.88831 1.54284,-1.3909 0.97013,-0.50259 2.16233,-0.50259 1.94024,0 2.94543,0.97012 1.01688,0.95843 1.04025,2.80518 v 6.38177 q 0.0117,1.46103 0.3974,2.53635 v 0.18701 z m -2.75842,-1.64804 q 0.75973,0 1.44934,-0.42078 0.6896,-0.42078 1.00519,-1.05194 v -3.01556 h -1.16883 q -1.47271,0.0234 -2.32596,0.66623 -0.85324,0.63116 -0.85324,1.77661 0,1.07531 0.43247,1.56622 0.43246,0.47922 1.46103,0.47922 z"
       style="font-style:normal;font-variant:normal;font-weight:400;font-size:23.9375px;font-family:'Roboto Condensed';fill:#44546a;stroke-width:2.21887922"
       id="path1036"
       inkscape:connector-curvature="0" />
    <path
       d="m 186.21829,273.90411 v 3.06232 h 1.90518 v 1.67142 h -1.90518 v 7.8428 q 0,0.74805 0.24546,1.13376 0.24545,0.38571 0.84155,0.38571 0.40909,0 0.82986,-0.14026 l -0.0234,1.75324 q -0.7013,0.23376 -1.43766,0.23376 -1.22726,0 -1.87011,-0.87661 -0.64286,-0.87662 -0.64286,-2.47791 v -7.85449 h -1.92856 v -1.67142 h 1.92856 v -3.06232 z"
       style="font-style:normal;font-variant:normal;font-weight:400;font-size:23.9375px;font-family:'Roboto Condensed';fill:#44546a;stroke-width:2.21887922"
       id="path1038"
       inkscape:connector-curvature="0" />
    <path
       d="m 197.07666,289.6131 q -0.18701,-0.40909 -0.26883,-1.37921 -1.09869,1.61297 -2.80517,1.61297 -1.71818,0 -2.6883,-0.95843 -0.95843,-0.97013 -0.95843,-2.72336 0,-1.92856 1.30908,-3.06232 1.30908,-1.13376 3.58829,-1.15713 h 1.51947 v -1.34415 q 0,-1.13376 -0.5026,-1.61298 -0.50259,-0.47921 -1.53116,-0.47921 -0.93505,0 -1.51947,0.56103 -0.58441,0.54935 -0.58441,1.40259 h -2.06882 q 0,-0.97012 0.57273,-1.84674 0.57272,-0.88831 1.54284,-1.3909 0.97013,-0.50259 2.16233,-0.50259 1.94024,0 2.94543,0.97012 1.01688,0.95843 1.04026,2.80518 v 6.38177 q 0.0117,1.46103 0.39739,2.53635 v 0.18701 z m -2.75842,-1.64804 q 0.75973,0 1.44934,-0.42078 0.6896,-0.42078 1.00519,-1.05194 v -3.01556 h -1.16883 q -1.47271,0.0234 -2.32596,0.66623 -0.85324,0.63116 -0.85324,1.77661 0,1.07531 0.43247,1.56622 0.43246,0.47922 1.46103,0.47922 z"
       style="font-style:normal;font-variant:normal;font-weight:400;font-size:23.9375px;font-family:'Roboto Condensed';fill:#44546a;stroke-width:2.21887922"
       id="path1040"
       inkscape:connector-curvature="0" />
  </g>
  <g
     aria-label="GRPH Api"
     style="font-style:normal;font-variant:normal;font-weight:700;font-size:23.9375px;line-height:125%;font-family:'Roboto Condensed';text-align:start;letter-spacing:0px;word-spacing:0px;text-anchor:start;fill:#000000;fill-opacity:1;stroke:none;stroke-width:2.21887922"
     id="text114"
     transform="matrix(0.44262994,0,0,0.45887234,-0.79623973,17.473987)">
    <path
       d="m 96.660797,316.42722 q -0.9935,1.07531 -2.44284,1.62466 -1.437653,0.53766 -3.155823,0.53766 -2.933747,0 -4.558411,-1.81168 -1.624664,-1.82336 -1.671417,-5.29477 v -3.06231 q 0,-3.51816 1.531158,-5.41166 1.542847,-1.90518 4.488282,-1.90518 2.770111,0 4.172699,1.36753 1.414276,1.36752 1.636352,4.28958 h -3.342834 q -0.140259,-1.62467 -0.677918,-2.20908 -0.537659,-0.5961 -1.683105,-0.5961 -1.3909,0 -2.022065,1.01688 -0.631164,1.01687 -0.654541,3.23764 v 3.08569 q 0,2.32596 0.689606,3.38959 0.701294,1.05194 2.290894,1.05194 1.016876,0 1.648041,-0.40909 l 0.303894,-0.21039 v -3.12075 h -2.407776 v -2.59479 h 5.855804 z"
       style="font-style:normal;font-variant:normal;font-weight:700;font-size:23.9375px;font-family:'Roboto Condensed';fill:#44546a;stroke-width:2.21887922"
       id="path1019"
       inkscape:connector-curvature="0" />
    <path
       d="m 104.26984,312.13763 h -1.70649 v 6.21814 h -3.436336 v -17.01806 h 5.481786 q 2.58309,0 3.98568,1.34414 1.41428,1.33246 1.41428,3.79868 0,3.38959 -2.46622,4.74542 l 2.9805,6.96619 v 0.16363 h -3.69348 z m -1.70649,-2.86361 h 1.95194 q 1.02856,0 1.54285,-0.67792 0.51428,-0.68961 0.51428,-1.83505 0,-2.55973 -1.99869,-2.55973 h -2.01038 z"
       style="font-style:normal;font-variant:normal;font-weight:700;font-size:23.9375px;font-family:'Roboto Condensed';fill:#44546a;stroke-width:2.21887922"
       id="path1021"
       inkscape:connector-curvature="0" />
    <path
       d="m 115.8295,312.3714 v 5.98437 h -3.43634 v -17.01806 h 5.79736 q 2.52466,0 4.02075,1.56622 1.50779,1.56622 1.50779,4.06751 0,2.50128 -1.48441,3.95062 -1.48441,1.44934 -4.11426,1.44934 z m 0,-2.86362 h 2.36102 q 0.98181,0 1.51947,-0.64285 0.53766,-0.64285 0.53766,-1.87012 0,-1.27402 -0.54935,-2.02206 -0.54934,-0.75974 -1.47271,-0.77143 h -2.39609 z"
       style="font-style:normal;font-variant:normal;font-weight:700;font-size:23.9375px;font-family:'Roboto Condensed';fill:#44546a;stroke-width:2.21887922"
       id="path1023"
       inkscape:connector-curvature="0" />
    <path
       d="m 137.93195,318.35577 h -3.42466 v -7.28176 h -5.07269 v 7.28176 h -3.43634 v -17.01806 h 3.43634 v 6.88437 h 5.07269 v -6.88437 h 3.42466 z"
       style="font-style:normal;font-variant:normal;font-weight:700;font-size:23.9375px;font-family:'Roboto Condensed';fill:#44546a;stroke-width:2.21887922"
       id="path1025"
       inkscape:connector-curvature="0" />
    <path
       d="m 154.31885,314.87268 h -4.68698 l -0.91169,3.48309 h -3.63504 l 5.31815,-17.01806 h 3.14413 l 5.35321,17.01806 h -3.6701 z m -3.93894,-2.86362 h 3.1792 l -1.5896,-6.06619 z"
       style="font-style:normal;font-variant:normal;font-weight:700;font-size:23.9375px;font-family:'Roboto Condensed';fill:#44546a;stroke-width:2.21887922"
       id="path1027"
       inkscape:connector-curvature="0" />
    <path
       d="m 169.63043,312.42984 q 0,2.9805 -1.02856,4.5701 -1.01688,1.5896 -3.03894,1.5896 -1.54285,0 -2.47791,-1.25064 v 5.87918 h -3.30777 v -17.50897 h 3.06232 l 0.11688,1.15713 q 0.94675,-1.3909 2.5831,-1.3909 2.02206,0 3.03894,1.47272 1.02857,1.47272 1.05194,4.51166 z m -3.29608,-0.82986 q 0,-1.83506 -0.40909,-2.59479 -0.3974,-0.75974 -1.35583,-0.75974 -1.01688,0 -1.48441,0.85324 v 5.92594 q 0.44415,0.81817 1.50778,0.81817 0.98182,0 1.35584,-0.82986 0.38571,-0.82987 0.38571,-2.5831 z"
       style="font-style:normal;font-variant:normal;font-weight:700;font-size:23.9375px;font-family:'Roboto Condensed';fill:#44546a;stroke-width:2.21887922"
       id="path1029"
       inkscape:connector-curvature="0" />
    <path
       d="m 175.1239,318.35577 h -3.31946 v -12.64666 h 3.31946 z m -3.4714,-15.91937 q 0,-0.77142 0.4909,-1.26233 0.49091,-0.4909 1.30908,-0.4909 0.81818,0 1.30909,0.4909 0.4909,0.49091 0.4909,1.26233 0,0.75974 -0.4909,1.26233 -0.47922,0.50259 -1.30909,0.50259 -0.82986,0 -1.32077,-0.50259 -0.47921,-0.50259 -0.47921,-1.26233 z"
       style="font-style:normal;font-variant:normal;font-weight:700;font-size:23.9375px;font-family:'Roboto Condensed';fill:#44546a;stroke-width:2.21887922"
       id="path1031"
       inkscape:connector-curvature="0" />
  </g>
  <g
     aria-label="Event Logging"
     style="font-style:normal;font-variant:normal;font-weight:400;font-size:23.9375px;line-height:125%;font-family:'Roboto Condensed';text-align:start;letter-spacing:0px;word-spacing:0px;text-anchor:start;fill:#000000;fill-opacity:1;stroke:none;stroke-width:2.21887922"
     id="text120"
     transform="matrix(0.44262994,0,0,0.45887234,-0.79623973,17.473987)">
    <path
       d="m 713.14932,281.19919 h -6.01944 v 6.03113 h 7.01294 v 1.83505 h -9.15188 V 272.0473 h 9.035 v 1.84674 h -6.89606 v 5.4701 h 6.01944 z"
       style="font-style:normal;font-variant:normal;font-weight:400;font-size:23.9375px;font-family:'Roboto Condensed';fill:#f7941e;stroke-width:2.21887922"
       id="path994"
       inkscape:connector-curvature="0" />
    <path
       d="m 719.88174,285.92123 2.39609,-9.50253 h 2.10388 l -3.75192,12.64667 h -1.54285 l -3.79867,-12.64667 h 2.10388 z"
       style="font-style:normal;font-variant:normal;font-weight:400;font-size:23.9375px;font-family:'Roboto Condensed';fill:#f7941e;stroke-width:2.21887922"
       id="path996"
       inkscape:connector-curvature="0" />
    <path
       d="m 730.91544,289.29913 q -2.36103,0 -3.62336,-1.40258 -1.26233,-1.41428 -1.2857,-4.13764 v -1.53116 q 0,-2.82855 1.22726,-4.42984 1.23896,-1.61297 3.44803,-1.61297 2.22077,0 3.31946,1.41427 1.09869,1.41428 1.12207,4.40647 v 1.35583 h -7.05969 v 0.29221 q 0,2.03375 0.75973,2.95712 0.77143,0.92337 2.20908,0.92337 0.91168,0 1.60129,-0.33896 0.70129,-0.35065 1.30908,-1.09869 l 1.07532,1.30908 q -1.34415,1.89349 -4.10257,1.89349 z m -0.23377,-11.33758 q -1.2857,0 -1.90518,0.8883 -0.61948,0.87662 -0.70129,2.73505 h 4.97918 v -0.28052 q -0.0818,-1.79999 -0.65454,-2.57141 -0.56103,-0.77142 -1.71817,-0.77142 z"
       style="font-style:normal;font-variant:normal;font-weight:400;font-size:23.9375px;font-family:'Roboto Condensed';fill:#f7941e;stroke-width:2.21887922"
       id="path998"
       inkscape:connector-curvature="0" />
    <path
       d="m 739.56473,276.4187 0.0584,1.36752 q 1.20389,-1.60128 3.074,-1.60128 3.35453,0 3.40128,4.47659 v 8.40384 h -2.05713 v -8.31033 q 0,-1.48441 -0.50259,-2.10389 -0.49091,-0.63116 -1.48441,-0.63116 -0.77142,0 -1.3909,0.51428 -0.60779,0.51428 -0.98181,1.34415 v 9.18695 h -2.06882 V 276.4187 Z"
       style="font-style:normal;font-variant:normal;font-weight:400;font-size:23.9375px;font-family:'Roboto Condensed';fill:#f7941e;stroke-width:2.21887922"
       id="path1000"
       inkscape:connector-curvature="0" />
    <path
       d="m 751.91919,273.35638 v 3.06232 h 1.90518 v 1.67142 h -1.90518 v 7.8428 q 0,0.74805 0.24545,1.13376 0.24546,0.38571 0.84156,0.38571 0.40908,0 0.82986,-0.14026 l -0.0234,1.75324 q -0.70129,0.23376 -1.43765,0.23376 -1.22726,0 -1.87012,-0.87661 -0.64285,-0.87662 -0.64285,-2.47791 v -7.85449 h -1.92856 v -1.67142 h 1.92856 v -3.06232 z"
       style="font-style:normal;font-variant:normal;font-weight:400;font-size:23.9375px;font-family:'Roboto Condensed';fill:#f7941e;stroke-width:2.21887922"
       id="path1002"
       inkscape:connector-curvature="0" />
    <path
       d="m 764.18015,287.23032 h 6.67398 v 1.83505 h -8.82462 V 272.0473 h 2.15064 z"
       style="font-style:normal;font-variant:normal;font-weight:400;font-size:23.9375px;font-family:'Roboto Condensed';fill:#f7941e;stroke-width:2.21887922"
       id="path1004"
       inkscape:connector-curvature="0" />
    <path
       d="m 772.6658,282.15762 q 0,-2.75842 1.33246,-4.35971 1.34415,-1.61297 3.54153,-1.61297 2.19739,0 3.52985,1.56622 1.34415,1.56622 1.37921,4.2662 v 1.33246 q 0,2.74674 -1.33246,4.34803 -1.33245,1.60128 -3.55322,1.60128 -2.19739,0 -3.52984,-1.55453 -1.32078,-1.55454 -1.36753,-4.20777 z m 2.06882,1.1922 q 0,1.95194 0.75973,3.07401 0.77143,1.11038 2.06882,1.11038 2.73505,0 2.81687,-3.95062 v -1.42597 q 0,-1.94024 -0.77143,-3.06231 -0.77142,-1.13376 -2.06882,-1.13376 -1.27401,0 -2.04544,1.13376 -0.75973,1.12207 -0.75973,3.05063 z"
       style="font-style:normal;font-variant:normal;font-weight:400;font-size:23.9375px;font-family:'Roboto Condensed';fill:#f7941e;stroke-width:2.21887922"
       id="path1006"
       inkscape:connector-curvature="0" />
    <path
       d="m 784.70468,282.16931 q 0,-2.95712 1.07532,-4.4649 1.07532,-1.51947 3.14413,-1.51947 1.92856,0 2.93375,1.64804 l 0.10519,-1.41428 h 1.87012 v 12.76355 q 0,2.34934 -1.20389,3.59998 -1.20388,1.26233 -3.35452,1.26233 -0.93506,0 -2.10388,-0.46753 -1.15714,-0.45584 -1.74155,-1.13376 l 0.84155,-1.42597 q 1.28571,1.26233 2.84025,1.26233 2.58309,0 2.65322,-2.81686 v -1.64804 q -1.00518,1.4844 -2.85192,1.4844 -1.96363,0 -3.06232,-1.47271 -1.0987,-1.48441 -1.14545,-4.25452 z m 2.06882,1.18051 q 0,2.12726 0.61947,3.13245 0.63117,0.9935 2.05713,0.9935 1.54285,0 2.31427,-1.57791 v -6.32334 q -0.80648,-1.55453 -2.29089,-1.55453 -1.42596,0 -2.05713,1.00519 -0.63116,0.9935 -0.64285,3.06231 z"
       style="font-style:normal;font-variant:normal;font-weight:400;font-size:23.9375px;font-family:'Roboto Condensed';fill:#f7941e;stroke-width:2.21887922"
       id="path1008"
       inkscape:connector-curvature="0" />
    <path
       d="m 796.48642,282.16931 q 0,-2.95712 1.07532,-4.4649 1.07531,-1.51947 3.14413,-1.51947 1.92856,0 2.93375,1.64804 l 0.10519,-1.41428 h 1.87012 v 12.76355 q 0,2.34934 -1.20389,3.59998 -1.20389,1.26233 -3.35452,1.26233 -0.93506,0 -2.10388,-0.46753 -1.15714,-0.45584 -1.74155,-1.13376 l 0.84155,-1.42597 q 1.28571,1.26233 2.84024,1.26233 2.5831,0 2.65323,-2.81686 v -1.64804 q -1.00519,1.4844 -2.85193,1.4844 -1.96362,0 -3.06231,-1.47271 -1.0987,-1.48441 -1.14545,-4.25452 z m 2.06882,1.18051 q 0,2.12726 0.61947,3.13245 0.63117,0.9935 2.05713,0.9935 1.54285,0 2.31427,-1.57791 v -6.32334 q -0.80649,-1.55453 -2.29089,-1.55453 -1.42597,0 -2.05713,1.00519 -0.63116,0.9935 -0.64285,3.06231 z"
       style="font-style:normal;font-variant:normal;font-weight:400;font-size:23.9375px;font-family:'Roboto Condensed';fill:#f7941e;stroke-width:2.21887922"
       id="path1010"
       inkscape:connector-curvature="0" />
    <path
       d="m 810.9097,289.06537 h -2.06882 V 276.4187 h 2.06882 z m 0.16363,-16.00119 q 0,0.52597 -0.2922,0.87662 -0.29221,0.35064 -0.88831,0.35064 -0.58441,0 -0.87662,-0.35064 -0.2922,-0.35065 -0.2922,-0.87662 0,-0.52597 0.2922,-0.88831 0.29221,-0.36233 0.87662,-0.36233 0.58441,0 0.87662,0.37402 0.30389,0.36234 0.30389,0.87662 z"
       style="font-style:normal;font-variant:normal;font-weight:400;font-size:23.9375px;font-family:'Roboto Condensed';fill:#f7941e;stroke-width:2.21887922"
       id="path1012"
       inkscape:connector-curvature="0" />
    <path
       d="m 816.09927,276.4187 0.0584,1.36752 q 1.20389,-1.60128 3.07401,-1.60128 3.35452,0 3.40128,4.47659 v 8.40384 h -2.05713 v -8.31033 q 0,-1.48441 -0.5026,-2.10389 -0.4909,-0.63116 -1.4844,-0.63116 -0.77143,0 -1.3909,0.51428 -0.60779,0.51428 -0.98181,1.34415 v 9.18695 H 814.1473 V 276.4187 Z"
       style="font-style:normal;font-variant:normal;font-weight:400;font-size:23.9375px;font-family:'Roboto Condensed';fill:#f7941e;stroke-width:2.21887922"
       id="path1014"
       inkscape:connector-curvature="0" />
    <path
       d="m 825.33298,282.16931 q 0,-2.95712 1.07531,-4.4649 1.07532,-1.51947 3.14414,-1.51947 1.92856,0 2.93375,1.64804 l 0.10519,-1.41428 h 1.87012 v 12.76355 q 0,2.34934 -1.20389,3.59998 -1.20389,1.26233 -3.35452,1.26233 -0.93506,0 -2.10389,-0.46753 -1.15713,-0.45584 -1.74154,-1.13376 l 0.84155,-1.42597 q 1.28571,1.26233 2.84024,1.26233 2.5831,0 2.65323,-2.81686 v -1.64804 q -1.00519,1.4844 -2.85193,1.4844 -1.96362,0 -3.06232,-1.47271 -1.09869,-1.48441 -1.14544,-4.25452 z m 2.06881,1.18051 q 0,2.12726 0.61948,3.13245 0.63117,0.9935 2.05713,0.9935 1.54285,0 2.31427,-1.57791 v -6.32334 q -0.80649,-1.55453 -2.29089,-1.55453 -1.42597,0 -2.05713,1.00519 -0.63117,0.9935 -0.64286,3.06231 z"
       style="font-style:normal;font-variant:normal;font-weight:400;font-size:23.9375px;font-family:'Roboto Condensed';fill:#f7941e;stroke-width:2.21887922"
       id="path1016"
       inkscape:connector-curvature="0" />
  </g>
  <g
     aria-label="JRNL Api"
     style="font-style:normal;font-variant:normal;font-weight:700;font-size:23.9375px;line-height:125%;font-family:'Roboto Condensed';text-align:start;letter-spacing:0px;word-spacing:0px;text-anchor:start;fill:#000000;fill-opacity:1;stroke:none;stroke-width:2.21887922"
     id="text126"
     transform="matrix(0.44262994,0,0,0.45887234,-0.79623973,17.473987)">
    <path
       d="m 732.47791,300.78992 h 3.43634 v 11.78174 q 0,2.4779 -1.37922,3.97399 -1.37921,1.4961 -3.55322,1.4961 -2.33764,0 -3.63504,-1.3909 -1.29739,-1.3909 -1.29739,-3.86881 h 3.44803 q 0,2.40778 1.4844,2.40778 1.4961,0 1.4961,-2.7818 z"
       style="font-style:normal;font-variant:normal;font-weight:700;font-size:23.9375px;font-family:'Roboto Condensed';fill:#f7941e;stroke-width:2.21887922"
       id="path979"
       inkscape:connector-curvature="0" />
    <path
       d="m 743.76874,311.58984 h -1.70648 v 6.21814 h -3.43634 v -17.01806 h 5.48178 q 2.5831,0 3.98568,1.34414 1.41428,1.33246 1.41428,3.79868 0,3.38959 -2.46622,4.74542 l 2.9805,6.96619 v 0.16363 h -3.69348 z m -1.70648,-2.86361 h 1.95193 q 1.02857,0 1.54285,-0.67792 0.51428,-0.68961 0.51428,-1.83505 0,-2.55973 -1.99869,-2.55973 h -2.01037 z"
       style="font-style:normal;font-variant:normal;font-weight:700;font-size:23.9375px;font-family:'Roboto Condensed';fill:#f7941e;stroke-width:2.21887922"
       id="path981"
       inkscape:connector-curvature="0" />
    <path
       d="m 763.79068,317.80798 h -3.43634 l -5.02594,-11.16226 v 11.16226 h -3.43634 v -17.01806 h 3.43634 l 5.03763,11.17395 v -11.17395 h 3.42465 z"
       style="font-style:normal;font-variant:normal;font-weight:700;font-size:23.9375px;font-family:'Roboto Condensed';fill:#f7941e;stroke-width:2.21887922"
       id="path983"
       inkscape:connector-curvature="0" />
    <path
       d="m 770.00882,314.95605 h 6.03113 v 2.85193 h -9.46747 v -17.01806 h 3.43634 z"
       style="font-style:normal;font-variant:normal;font-weight:700;font-size:23.9375px;font-family:'Roboto Condensed';fill:#f7941e;stroke-width:2.21887922"
       id="path985"
       inkscape:connector-curvature="0" />
    <path
       d="m 791.66711,314.32489 h -4.68698 l -0.91168,3.48309 h -3.63504 l 5.31815,-17.01806 h 3.14413 l 5.35321,17.01806 h -3.6701 z m -3.93893,-2.86362 h 3.1792 l -1.5896,-6.06619 z"
       style="font-style:normal;font-variant:normal;font-weight:700;font-size:23.9375px;font-family:'Roboto Condensed';fill:#f7941e;stroke-width:2.21887922"
       id="path987"
       inkscape:connector-curvature="0" />
    <path
       d="m 806.9787,311.88205 q 0,2.9805 -1.02857,4.5701 -1.01687,1.5896 -3.03894,1.5896 -1.54284,0 -2.4779,-1.25064 v 5.87918 h -3.30777 v -17.50897 h 3.06232 l 0.11688,1.15713 q 0.94674,-1.3909 2.5831,-1.3909 2.02206,0 3.03894,1.47272 1.02856,1.47272 1.05194,4.51166 z m -3.29608,-0.82986 q 0,-1.83506 -0.40909,-2.59479 -0.3974,-0.75974 -1.35584,-0.75974 -1.01687,0 -1.4844,0.85324 v 5.92594 q 0.44415,0.81817 1.50778,0.81817 0.98181,0 1.35584,-0.82986 0.38571,-0.82987 0.38571,-2.5831 z"
       style="font-style:normal;font-variant:normal;font-weight:700;font-size:23.9375px;font-family:'Roboto Condensed';fill:#f7941e;stroke-width:2.21887922"
       id="path989"
       inkscape:connector-curvature="0" />
    <path
       d="m 812.47217,317.80798 h -3.31946 v -12.64666 h 3.31946 z m -3.47141,-15.91937 q 0,-0.77142 0.49091,-1.26233 0.4909,-0.4909 1.30908,-0.4909 0.81818,0 1.30908,0.4909 0.49091,0.49091 0.49091,1.26233 0,0.75974 -0.49091,1.26233 -0.47921,0.50259 -1.30908,0.50259 -0.82986,0 -1.32077,-0.50259 -0.47922,-0.50259 -0.47922,-1.26233 z"
       style="font-style:normal;font-variant:normal;font-weight:700;font-size:23.9375px;font-family:'Roboto Condensed';fill:#f7941e;stroke-width:2.21887922"
       id="path991"
       inkscape:connector-curvature="0" />
  </g>
  <path
     style="fill:#f7941e;fill-opacity:1;fill-rule:nonzero;stroke:#f7941e;stroke-width:0.03992113px;stroke-linecap:butt;stroke-linejoin:round;stroke-miterlimit:4;stroke-dasharray:none;stroke-opacity:1"
     d="m 246.0073,171.17015 0.0177,1.11744 0.053,1.11745 0.0707,1.11744 0.12368,1.11743 0.14137,1.11745 0.1767,1.11744 0.19438,1.11744 0.22971,1.09912 0.26505,1.09912 0.28273,1.09913 0.31806,1.0808 0.33574,1.09912 0.75982,2.14329 0.86584,2.12497 0.95421,2.07002 1.06021,2.05169 1.14857,1.99674 1.21925,1.94178 1.3076,1.88683 1.39595,1.85019 1.46663,1.77691 1.51965,1.72196 1.59033,1.63037 1.66101,1.5754 1.71401,1.48382 1.76703,1.41054 1.82004,1.31895 1.85538,1.22735 1.90839,1.13576 1.92606,1.02584 1.97908,0.93426 0.98953,0.40301 1.00722,0.40301 1.0072,0.36638 1.02488,0.32973 1.02487,0.31142 1.02488,0.27478 1.02487,0.25647 1.04255,0.21982 1.02488,0.18319 1.04255,0.14654 1.21925,0.10992 0.0354,-0.60452 -1.18391,-0.10991 h 0.0177 l -1.04256,-0.14655 h 0.0177 l -1.02487,-0.18319 v 0 l -1.02488,-0.21982 v 0 l -1.02487,-0.23815 h 0.0177 l -1.02489,-0.27477 h 0.0177 l -1.02488,-0.31143 0.0177,0.0183 -1.0072,-0.34805 v 0 l -1.00721,-0.34806 h 0.0177 l -1.00721,-0.40301 0.0177,0.0183 -0.98954,-0.42132 v 0 l -1.94373,-0.91594 v 0 l -1.92606,-1.02585 0.0177,0.0183 -1.89072,-1.13576 0.0177,0.0183 -1.85538,-1.22734 h 0.0177 l -1.80236,-1.30064 v 0 l -1.74936,-1.39222 v 0 l -1.69635,-1.48381 v 0.0183 l -1.64334,-1.55709 h 0.0177 l -1.59033,-1.63037 v 0.0183 l -1.51964,-1.70365 h 0.0177 l -1.46664,-1.75859 h 0.0177 l -1.37828,-1.83187 v 0.0183 l -1.28994,-1.88683 v 0 l -1.21924,-1.92347 v 0 l -1.1309,-1.97841 v 0.0183 l -1.04255,-2.03338 v 0 l -0.95419,-2.07001 v 0.0183 l -0.84818,-2.10665 v 0.0183 l -0.75982,-2.14329 0.0177,0.0183 -0.35341,-1.08081 v 0.0183 l -0.3004,-1.08081 v 0 l -0.28273,-1.0808 v 0 l -0.26505,-1.09912 0.0177,0.0183 -0.22972,-1.09912 v 0 l -0.21204,-1.09913 v 0.0183 l -0.15903,-1.11743 v 0.0183 l -0.14167,-1.11698 v 0.0183 l -0.10603,-1.11744 v 0.0183 l -0.0884,-1.11744 v 0 l -0.0354,-1.09912 v 0 l -0.0177,-1.11745 z m 40.88905,49.09413 3.62241,-1.63036 -3.42803,-2.03338 z"
     id="path128"
     inkscape:connector-curvature="0" />
  <path
     style="fill:#148ec6;fill-opacity:1;fill-rule:nonzero;stroke:#148ec6;stroke-width:0.01996057px;stroke-linecap:butt;stroke-linejoin:round;stroke-miterlimit:4;stroke-dasharray:none;stroke-opacity:1"
     d="m 152.14272,171.17015 -0.0177,1.10828 -0.0442,1.12661 -0.0795,1.11744 -0.10602,1.11743 -0.14137,1.11745 -0.16787,1.11744 -0.2032,1.10828 -0.22972,1.09912 -0.24738,1.10828 -0.28272,1.08996 -0.30923,1.08997 -0.33574,1.08996 -0.75099,2.14329 -0.85701,2.11581 -0.94536,2.07917 -1.0337,2.0517 -1.13091,1.98758 -1.21042,1.95094 -1.28992,1.89599 -1.36945,1.84102 -1.44013,1.77692 -1.51081,1.7128 -1.57266,1.64869 -1.62566,1.56624 -1.69635,1.49298 -1.74052,1.40138 -1.78471,1.31894 -1.8377,1.22736 -1.87305,1.13576 -1.91723,1.02584 -1.94373,0.93426 -0.98071,0.41217 -0.98953,0.40301 -0.99837,0.36638 -0.99837,0.32973 -1.01604,0.31142 -1.00721,0.27478 -1.01604,0.25647 -1.01604,0.21066 -1.02488,0.18319 -1.03371,0.1557 -1.14857,0.0916 -0.0442,-0.60451 1.13974,-0.10076 h -0.0177 l 1.01604,-0.14655 h -0.009 l 1.01603,-0.18319 h -0.009 l 1.0072,-0.21066 -0.009,0.009 1.00721,-0.2473 h -0.009 l 1.00721,-0.27478 h -0.009 l 1.00721,-0.31142 -0.009,0.009 0.98953,-0.33889 -0.009,0.009 0.98954,-0.36637 h -0.009 l 0.98071,-0.39385 v 0.009 l 0.97186,-0.42132 -0.009,0.009 1.9349,-0.92509 -0.0177,0.009 1.89956,-1.02584 -0.009,0.009 1.86422,-1.1266 -0.0177,0.009 1.82888,-1.22735 -0.009,0.009 1.77586,-1.30979 -0.009,0.009 1.73169,-1.39223 -0.0177,0.009 1.68751,-1.48382 -0.009,0.009 1.61684,-1.55709 h -0.009 l 1.56382,-1.63037 -0.009,0.009 1.50197,-1.70364 -0.009,0.009 1.43129,-1.76775 v 0.009 l 1.36061,-1.83187 -0.009,0.009 1.2811,-1.88683 -0.009,0.009 1.20158,-1.93263 v 0.009 l 1.12206,-1.97842 -0.009,0.009 1.03371,-2.03338 -0.009,0.009 0.94536,-2.06086 -0.009,0.009 0.84817,-2.10666 -0.009,0.0183 0.75099,-2.13412 -0.009,0.009 0.33574,-1.0808 v 0.009 l 0.3004,-1.08081 v 0.009 l 0.28272,-1.08997 v 0.009 l 0.25622,-1.09913 -0.009,0.009 0.22971,-1.08997 v 0 l 0.19437,-1.09912 v 0.009 l 0.16787,-1.10828 v 0.009 l 0.13253,-1.10827 v 0.009 l 0.11486,-1.10828 v 0.009 l 0.0795,-1.11745 v 0.0183 l 0.0442,-1.11744 v 0.009 l 0.0177,-1.11745 z m -40.26176,49.08497 -3.63124,-1.6212 3.43686,-2.03338 z"
     id="path130"
     inkscape:connector-curvature="0" />
  <path
     style="fill:#ffffff;fill-opacity:1;fill-rule:evenodd;stroke:none;stroke-width:1"
     d="m 70.073045,189.1866 c 0.768658,0 1.395954,0.65032 1.395954,1.44718 v 59.43504 c 0,0.79686 -0.627296,1.43801 -1.395954,1.43801 h -5.566142 c -0.768653,0 -1.387114,-0.64115 -1.387114,-1.43801 v -59.43504 c 0,-0.79686 0.618461,-1.44718 1.387114,-1.44718 z"
     id="path132"
     inkscape:connector-curvature="0" />
  <path
     style="fill:none;stroke:#44546a;stroke-width:1.33735812px;stroke-linecap:butt;stroke-linejoin:miter;stroke-miterlimit:8;stroke-dasharray:none;stroke-opacity:1"
     d="m 70.073045,189.1866 c 0.768658,0 1.395954,0.65032 1.395954,1.44718 v 59.43504 c 0,0.79686 -0.627296,1.43801 -1.395954,1.43801 h -5.566142 c -0.768653,0 -1.387114,-0.64115 -1.387114,-1.43801 v -59.43504 c 0,-0.79686 0.618461,-1.44718 1.387114,-1.44718 z"
     id="path134"
     inkscape:connector-curvature="0" />
  <path
     style="fill:#ffffff;fill-opacity:1;fill-rule:evenodd;stroke:none;stroke-width:1"
     d="m 60.089332,189.1866 c 0.768658,0 1.387118,0.65032 1.387118,1.44718 v 59.43504 c 0,0.79686 -0.61846,1.43801 -1.387118,1.43801 H 54.52319 c -0.768658,0 -1.395953,-0.64115 -1.395953,-1.43801 v -59.43504 c 0,-0.79686 0.627295,-1.44718 1.395953,-1.44718 z"
     id="path136"
     inkscape:connector-curvature="0" />
  <path
     style="fill:none;stroke:#44546a;stroke-width:1.33735812px;stroke-linecap:butt;stroke-linejoin:miter;stroke-miterlimit:8;stroke-dasharray:none;stroke-opacity:1"
     d="m 60.089332,189.1866 c 0.768658,0 1.387118,0.65032 1.387118,1.44718 v 59.43504 c 0,0.79686 -0.61846,1.43801 -1.387118,1.43801 H 54.52319 c -0.768658,0 -1.395953,-0.64115 -1.395953,-1.43801 v -59.43504 c 0,-0.79686 0.627295,-1.44718 1.395953,-1.44718 z"
     id="path138"
     inkscape:connector-curvature="0" />
  <path
     style="fill:#ffffff;fill-opacity:1;fill-rule:evenodd;stroke:none;stroke-width:1"
     d="m 50.167464,189.1866 c 0.768657,0 1.395952,0.65032 1.395952,1.44718 v 59.43504 c 0,0.79686 -0.627295,1.43801 -1.395952,1.43801 h -5.566143 c -0.768658,0 -1.38712,-0.64115 -1.38712,-1.43801 v -59.43504 c 0,-0.79686 0.618462,-1.44718 1.38712,-1.44718 z"
     id="path140"
     inkscape:connector-curvature="0" />
  <path
     style="fill:none;stroke:#44546a;stroke-width:1.33735812px;stroke-linecap:butt;stroke-linejoin:miter;stroke-miterlimit:8;stroke-dasharray:none;stroke-opacity:1"
     d="m 50.167464,189.1866 c 0.768657,0 1.395952,0.65032 1.395952,1.44718 v 59.43504 c 0,0.79686 -0.627295,1.43801 -1.395952,1.43801 h -5.566143 c -0.768658,0 -1.38712,-0.64115 -1.38712,-1.43801 v -59.43504 c 0,-0.79686 0.618462,-1.44718 1.38712,-1.44718 z"
     id="path142"
     inkscape:connector-curvature="0" />
  <path
     style="fill:#ffffff;fill-opacity:1;fill-rule:evenodd;stroke:none;stroke-width:1"
     d="m 40.148409,189.1866 c 0.768658,0 1.395953,0.65032 1.395953,1.44718 v 59.43504 c 0,0.79686 -0.627295,1.43801 -1.395953,1.43801 h -5.566142 c -0.768658,0 -1.387118,-0.64115 -1.387118,-1.43801 v -59.43504 c 0,-0.79686 0.61846,-1.44718 1.387118,-1.44718 z"
     id="path144"
     inkscape:connector-curvature="0" />
  <path
     style="fill:none;stroke:#44546a;stroke-width:1.33735812px;stroke-linecap:butt;stroke-linejoin:miter;stroke-miterlimit:8;stroke-dasharray:none;stroke-opacity:1"
     d="m 40.148409,189.1866 c 0.768658,0 1.395953,0.65032 1.395953,1.44718 v 59.43504 c 0,0.79686 -0.627295,1.43801 -1.395953,1.43801 h -5.566142 c -0.768658,0 -1.387118,-0.64115 -1.387118,-1.43801 v -59.43504 c 0,-0.79686 0.61846,-1.44718 1.387118,-1.44718 z"
     id="path146"
     inkscape:connector-curvature="0" />
  <path
     style="fill:#ffffff;fill-opacity:1;fill-rule:evenodd;stroke:none;stroke-width:1"
     d="m 80.984454,189.1866 c 0.76865,0 1.395951,0.65032 1.395951,1.44718 v 59.43504 c 0,0.79686 -0.627301,1.43801 -1.395951,1.43801 h -5.557311 c -0.768658,0 -1.395952,-0.64115 -1.395952,-1.43801 v -59.43504 c 0,-0.79686 0.627294,-1.44718 1.395952,-1.44718 z"
     id="path148"
     inkscape:connector-curvature="0" />
  <path
     style="fill:none;stroke:#44546a;stroke-width:1.33735812px;stroke-linecap:butt;stroke-linejoin:miter;stroke-miterlimit:8;stroke-dasharray:none;stroke-opacity:1"
     d="m 80.984454,189.1866 c 0.76865,0 1.395951,0.65032 1.395951,1.44718 v 59.43504 c 0,0.79686 -0.627301,1.43801 -1.395951,1.43801 h -5.557311 c -0.768658,0 -1.395952,-0.64115 -1.395952,-1.43801 v -59.43504 c 0,-0.79686 0.627294,-1.44718 1.395952,-1.44718 z"
     id="path150"
     inkscape:connector-curvature="0" />
  <path
     style="fill:#002060;fill-opacity:1;fill-rule:nonzero;stroke:#002060;stroke-width:0.01996057px;stroke-linecap:butt;stroke-linejoin:round;stroke-miterlimit:10;stroke-dasharray:none;stroke-opacity:1"
     d="m 33.928467,195.9462 h 1.175071 v 0.31142 l -1.183906,-0.009 z m 2.058588,0.009 h 1.175071 v 0.30226 h -1.175071 z m 2.058587,0 h 1.183911 v 0.31142 l -1.183911,-0.009 z m 2.067423,0.009 h 1.175076 v 0.30226 h -1.175076 z m 2.058592,0 h 1.175072 v 0.31142 l -1.175072,-0.009 z m 2.058589,0 1.183912,0.009 v 0.30226 h -1.183912 z m 2.067424,0.009 h 1.175076 v 0.31142 l -1.175076,-0.009 z m 2.058591,0 1.175072,0.009 v 0.30226 h -1.175072 z m 2.058588,0.009 h 1.183907 v 0.31141 l -1.183907,-0.009 z m 2.067423,0 1.175076,0.009 v 0.30226 h -1.175076 z m 2.058587,0.009 h 1.175077 v 0.30226 h -1.175077 z m 2.058593,0 1.183907,0.009 v 0.30226 h -1.183907 z m 2.067422,0.009 h 1.175073 v 0.30226 h -1.175073 z m 2.058588,0 1.175076,0.009 v 0.30226 h -1.175076 z m 2.058588,0.009 h 1.183911 v 0.30226 H 62.78405 Z m 2.067427,0 h 1.175072 v 0.31142 h -1.175072 z m 2.058587,0.009 h 1.175077 v 0.30225 h -1.175077 z m 2.058588,0 h 1.183912 v 0.31141 l -1.183912,-0.009 z m 2.067422,0.009 h 1.175081 v 0.30226 h -1.175081 z m 2.058593,0 h 1.175073 v 0.31142 l -1.175073,-0.009 z m 2.058586,0.009 h 1.183912 v 0.30225 h -1.183912 z m 2.067424,0 h 1.175073 v 0.31142 l -1.175073,-0.009 z m 2.058595,0.009 h 1.175073 v 0.30226 h -1.175073 z m 2.058585,0 h 1.042548 v 0.31142 l -1.042548,-0.009 z"
     id="path152"
     inkscape:connector-curvature="0" />
  <path
     style="fill:#002060;fill-opacity:1;fill-rule:nonzero;stroke:#002060;stroke-width:0.01996057px;stroke-linecap:butt;stroke-linejoin:round;stroke-miterlimit:10;stroke-dasharray:none;stroke-opacity:1"
     d="m 33.230488,205.15135 1.175076,0.009 v 0.30226 h -1.175076 z m 2.058588,0.009 h 1.183911 v 0.30226 h -1.183911 z m 2.067427,0 1.175072,0.009 v 0.30226 h -1.175072 z m 2.058587,0.009 h 1.175077 v 0.30226 H 39.41509 Z m 2.058588,0 h 1.183912 v 0.31142 h -1.183912 z m 2.067429,0.009 h 1.175072 v 0.30226 h -1.175072 z m 2.058588,0 h 1.175072 v 0.31141 l -1.175072,-0.009 z m 2.058588,0.009 h 1.183911 v 0.30226 h -1.183911 z m 2.067422,0 h 1.175077 v 0.31142 l -1.175077,-0.009 z m 2.058593,0.009 h 1.175072 v 0.30226 h -1.175072 z m 2.058587,0 h 1.183907 v 0.31142 l -1.183907,-0.009 z m 2.067423,0 1.175076,0.009 v 0.30226 h -1.175076 z m 2.058588,0.009 h 1.183911 l -0.0089,0.31142 -1.175077,-0.009 z m 2.067427,0 1.175071,0.009 v 0.30225 h -1.183906 z m 2.058588,0.009 h 1.175076 v 0.30225 h -1.175076 z m 2.058588,0 1.18391,0.009 -0.0089,0.30226 h -1.175076 z m 2.067427,0.009 h 1.175071 v 0.30226 h -1.183911 z m 2.058587,0 1.175072,0.009 v 0.30225 h -1.175072 z m 2.058588,0.009 h 1.183909 l -0.0089,0.30225 h -1.175072 z m 2.067422,0 1.175073,0.009 v 0.30226 h -1.183904 z m 2.058593,0.009 h 1.175073 v 0.30226 h -1.175073 z m 2.058586,0 h 1.183904 l -0.0089,0.31141 h -1.175051 z m 2.067425,0.009 H 79.7652 v 0.30225 h -1.183912 z m 2.058586,0 h 1.042548 l -0.0089,0.31142 -1.033716,-0.009 z"
     id="path154"
     inkscape:connector-curvature="0" />
  <path
     style="fill:#002060;fill-opacity:1;fill-rule:nonzero;stroke:#002060;stroke-width:0.01996057px;stroke-linecap:butt;stroke-linejoin:round;stroke-miterlimit:10;stroke-dasharray:none;stroke-opacity:1"
     d="m 33.230488,212.47883 1.175076,0.009 v 0.30226 h -1.175076 z m 2.058588,0.009 h 1.183911 v 0.30226 h -1.183911 z m 2.067427,0 1.175072,0.009 v 0.30226 h -1.175072 z m 2.058587,0.009 h 1.175077 v 0.30226 H 39.41509 Z m 2.058588,0 h 1.183912 v 0.31142 h -1.183912 z m 2.067429,0.009 h 1.175072 v 0.30226 h -1.175072 z m 2.058588,0 h 1.175072 v 0.31142 l -1.175072,-0.009 z m 2.058588,0.009 h 1.183911 v 0.30226 h -1.183911 z m 2.067422,0 h 1.175077 v 0.31141 l -1.175077,-0.009 z m 2.058593,0.009 h 1.175072 v 0.30226 h -1.175072 z m 2.058587,0 h 1.183907 v 0.31142 l -1.183907,-0.009 z m 2.067423,0 1.175076,0.009 v 0.30226 h -1.175076 z m 2.058588,0.009 h 1.183911 l -0.0089,0.31141 -1.175077,-0.009 z m 2.067427,0 1.175071,0.009 v 0.30226 h -1.183906 z m 2.058588,0.009 h 1.175076 v 0.30226 h -1.175076 z m 2.058588,0 1.18391,0.009 -0.0089,0.30226 h -1.175076 z m 2.067427,0.009 h 1.175071 v 0.30226 h -1.183911 z m 2.058587,0 1.175072,0.009 v 0.30226 h -1.175072 z m 2.058588,0.009 h 1.183909 l -0.0089,0.30226 h -1.175072 z m 2.067422,0 1.175073,0.009 v 0.30226 h -1.183904 z m 2.058593,0.009 h 1.175073 v 0.30226 h -1.175073 z m 2.058586,0 h 1.183904 l -0.0089,0.31142 h -1.175051 z m 2.067425,0.009 H 79.7652 v 0.30226 h -1.183912 z m 2.058586,0 h 1.042548 l -0.0089,0.31141 -1.033716,-0.009 z"
     id="path156"
     inkscape:connector-curvature="0" />
  <path
     style="fill:#002060;fill-opacity:1;fill-rule:nonzero;stroke:#002060;stroke-width:0.01996057px;stroke-linecap:butt;stroke-linejoin:round;stroke-miterlimit:10;stroke-dasharray:none;stroke-opacity:1"
     d="m 33.919632,222.46253 1.183906,0.009 v 0.30226 h -1.183906 z m 2.067423,0.009 h 1.175071 v 0.30226 h -1.175071 z m 2.058587,0 h 1.175077 v 0.31142 h -1.175077 z m 2.058588,0.009 h 1.183911 v 0.30226 H 40.10423 Z m 2.067427,0 h 1.175072 v 0.31142 l -1.175072,-0.009 z m 2.058589,0.009 h 1.175077 v 0.30226 h -1.175077 z m 2.058588,0 h 1.183912 v 0.31141 l -1.183912,-0.009 z m 2.067427,0.009 h 1.175072 v 0.30226 h -1.175072 z m 2.058588,0 h 1.175072 v 0.31142 l -1.175072,-0.009 z m 2.058588,0.009 h 1.183911 v 0.30226 h -1.183911 z m 2.067422,0 h 1.175077 v 0.31141 l -1.175077,-0.009 z m 2.058593,0 1.175071,0.009 v 0.30226 h -1.175071 z m 2.058587,0.009 h 1.183908 v 0.31142 l -1.183908,-0.009 z m 2.067423,0 1.175076,0.009 v 0.30226 h -1.175076 z m 2.058588,0.009 h 1.175076 v 0.30226 H 62.78405 Z m 2.058592,0 1.183907,0.009 v 0.30226 h -1.183907 z m 2.067422,0.009 h 1.175077 v 0.30226 h -1.175077 z m 2.058588,0 1.175077,0.009 v 0.30226 h -1.175077 z m 2.05859,0.009 h 1.183913 v 0.30226 h -1.183913 z m 2.067425,0 h 1.175073 v 0.31142 h -1.175073 z m 2.058586,0.009 h 1.175081 v 0.30226 h -1.175081 z m 2.058593,0 h 1.183904 v 0.31142 l -1.183904,-0.009 z m 2.067426,0.009 h 1.175073 v 0.30226 h -1.175073 z m 2.058585,0 h 1.042548 v 0.31142 l -1.042548,-0.009 z"
     id="path158"
     inkscape:connector-curvature="0" />
  <path
     style="fill:#002060;fill-opacity:1;fill-rule:nonzero;stroke:#002060;stroke-width:0.01996057px;stroke-linecap:butt;stroke-linejoin:round;stroke-miterlimit:10;stroke-dasharray:none;stroke-opacity:1"
     d="m 33.919632,232.84923 1.183906,0.009 v 0.30226 h -1.183906 z m 2.067423,0.009 h 1.175071 v 0.30226 h -1.175071 z m 2.058587,0 h 1.175077 v 0.31143 h -1.175077 z m 2.058588,0.009 h 1.183911 v 0.30226 H 40.10423 Z m 2.067427,0 h 1.175072 v 0.31141 l -1.175072,-0.009 z m 2.058589,0.009 h 1.175077 v 0.30226 h -1.175077 z m 2.058588,0 h 1.183912 v 0.31143 l -1.183912,-0.009 z m 2.067427,0.009 h 1.175072 v 0.30226 h -1.175072 z m 2.058588,0 h 1.175072 v 0.31141 l -1.175072,-0.009 z m 2.058588,0 1.183911,0.009 v 0.30226 h -1.183911 z m 2.067422,0.009 h 1.175077 v 0.31143 l -1.175077,-0.009 z m 2.058593,0 1.175071,0.009 v 0.30225 h -1.175071 z m 2.058587,0.009 h 1.183908 v 0.31141 l -1.183908,-0.009 z m 2.067423,0 1.175076,0.009 v 0.30226 h -1.175076 z m 2.058588,0.009 h 1.175076 v 0.30226 H 62.78405 Z m 2.058592,0 1.183907,0.009 v 0.30226 h -1.183907 z m 2.067422,0.009 h 1.175077 v 0.30226 h -1.175077 z m 2.058588,0 1.175077,0.009 v 0.30226 h -1.175077 z m 2.05859,0.009 h 1.183913 v 0.30226 h -1.183913 z m 2.067425,0 h 1.175073 v 0.31143 h -1.175073 z m 2.058586,0.009 h 1.175081 v 0.30226 h -1.175081 z m 2.058593,0 h 1.183904 v 0.31142 l -1.183904,-0.009 z m 2.067426,0.009 h 1.175073 v 0.30226 h -1.175073 z m 2.058585,0 h 1.042548 v 0.31142 l -1.042548,-0.009 z"
     id="path160"
     inkscape:connector-curvature="0" />
  <path
     style="fill:#002060;fill-opacity:1;fill-rule:nonzero;stroke:#002060;stroke-width:0.01996057px;stroke-linecap:butt;stroke-linejoin:round;stroke-miterlimit:10;stroke-dasharray:none;stroke-opacity:1"
     d="m 33.919632,242.27421 h 1.183906 l -0.0089,0.30226 h -1.175071 z m 2.067423,0 1.175071,0.009 v 0.30226 H 35.97822 Z m 2.058587,0.009 h 1.175077 v 0.30226 h -1.175077 z m 2.058588,0 1.183911,0.009 v 0.30226 H 40.10423 Z m 2.067427,0.009 h 1.175072 v 0.30226 h -1.175072 z m 2.058589,0 h 1.175077 v 0.31142 h -1.175077 z m 2.058588,0.009 h 1.183912 v 0.30226 h -1.183912 z m 2.067427,0 h 1.175072 v 0.31142 l -1.175072,-0.009 z m 2.058588,0.009 h 1.175072 v 0.30225 h -1.175072 z m 2.058588,0 h 1.183911 v 0.31141 l -1.183911,-0.009 z m 2.067422,0.009 h 1.175077 v 0.30226 h -1.175077 z m 2.058593,0 h 1.175071 v 0.31142 l -1.175071,-0.009 z m 2.058587,0 1.183908,0.009 v 0.30225 h -1.183908 z m 2.067423,0.009 h 1.175076 v 0.31141 l -1.175076,-0.009 z m 2.058588,0 1.175076,0.009 v 0.30226 H 62.78405 Z m 2.058592,0.009 h 1.183907 v 0.30226 h -1.183907 z m 2.067422,0 1.175077,0.009 v 0.30225 h -1.175077 z m 2.058588,0.009 h 1.175077 v 0.30225 h -1.175077 z m 2.05859,0 1.183913,0.009 v 0.30226 h -1.183913 z m 2.067425,0.009 h 1.175073 v 0.30226 h -1.175073 z m 2.058586,0 1.175081,0.009 v 0.30225 h -1.175081 z m 2.058593,0.009 h 1.183904 v 0.30225 h -1.183904 z m 2.067426,0 h 1.175073 v 0.31142 h -1.175073 z m 2.058585,0.009 h 1.042548 v 0.30226 h -1.042548 z"
     id="path162"
     inkscape:connector-curvature="0" />
  <path
     style="fill:#ffffff;fill-opacity:1;fill-rule:evenodd;stroke:none;stroke-width:1"
     d="m 312.44192,196.09341 c 0,-0.78771 0.61845,-1.42886 1.39595,-1.42886 h 57.32242 c 0.77749,0 1.39596,0.64115 1.39596,1.42886 v 5.77039 c 0,0.80602 -0.61847,1.44718 -1.39596,1.44718 h -57.32242 c -0.7775,0 -1.39595,-0.64116 -1.39595,-1.44718 z"
     id="path164"
     inkscape:connector-curvature="0" />
  <path
     style="fill:none;stroke:#f7941e;stroke-width:1.31739748px;stroke-linecap:butt;stroke-linejoin:miter;stroke-miterlimit:8;stroke-dasharray:none;stroke-opacity:1"
     d="m 312.44192,196.09341 c 0,-0.78771 0.61845,-1.42886 1.39595,-1.42886 h 57.32242 c 0.77749,0 1.39596,0.64115 1.39596,1.42886 v 5.77039 c 0,0.80602 -0.61847,1.44718 -1.39596,1.44718 h -57.32242 c -0.7775,0 -1.39595,-0.64116 -1.39595,-1.44718 z"
     id="path166"
     inkscape:connector-curvature="0" />
</svg>
